<svg xmlns="http://www.w3.org/2000/svg" xmlns:xlink="http://www.w3.org/1999/xlink" viewBox="0 0 960 286.33"><defs><style>.cls-1,.cls-11{fill:#e2e2e2;}.cls-2{fill:none;}.cls-3{fill:#f7f7f7;}.cls-4{fill:#acd9fc;}.cls-5{fill:#ccc;}.cls-6{isolation:isolate;}.cls-7{fill:url(#linear-gradient);}.cls-8{fill:url(#linear-gradient-2);}.cls-9{fill:#ddd;}.cls-10{clip-path:url(#clip-path);}.cls-11{opacity:0.63;mix-blend-mode:multiply;}.cls-12{clip-path:url(#clip-path-2);}.cls-13{clip-path:url(#clip-path-3);}.cls-14{clip-path:url(#clip-path-4);}.cls-15,.cls-30{fill:#fff;}.cls-16{clip-path:url(#clip-path-5);}.cls-17{fill:#fbb040;}.cls-18{fill:#100f28;}.cls-19{fill:#fdcda5;}.cls-20{fill:#eaeaea;}.cls-21{fill:url(#linear-gradient-3);}.cls-22{fill:url(#linear-gradient-4);}.cls-23{clip-path:url(#clip-path-6);}.cls-24{clip-path:url(#clip-path-7);}.cls-25{clip-path:url(#clip-path-8);}.cls-26{clip-path:url(#clip-path-9);}.cls-27{clip-path:url(#clip-path-10);}.cls-28{fill:#f4f4f4;}.cls-29,.cls-34{fill:#005eb8;}.cls-29,.cls-30{fill-rule:evenodd;}.cls-31{fill:#02355e;}.cls-32{fill:#494b51;}.cls-33{clip-path:url(#clip-path-11);}.cls-35{fill:#ed8b00;}.cls-36{fill:#d36705;}.cls-37{fill:#21333a;}.cls-38{fill:#d2eafa;}.cls-39{fill:#0a84f2;}.cls-40{fill:#70bef2;}.cls-41{fill:#d6eefc;}.cls-42{fill:#224959;}.cls-43{fill:#ffb285;}.cls-44{fill:#ff95a9;}.cls-45{fill:#606060;}.cls-46{fill:#7760db;}.cls-47{fill:#d3ebfb;}</style><linearGradient id="linear-gradient" x1="945.05" y1="137.33" x2="945.05" y2="49.69" gradientUnits="userSpaceOnUse"><stop offset="0" stop-color="#fff" stop-opacity="0"/><stop offset="0.1" stop-color="#fcfcfc" stop-opacity="0.2"/><stop offset="0.23" stop-color="#fafafa" stop-opacity="0.41"/><stop offset="0.36" stop-color="#f7f7f7" stop-opacity="0.59"/><stop offset="0.48" stop-color="#f5f5f5" stop-opacity="0.74"/><stop offset="0.61" stop-color="#f4f4f4" stop-opacity="0.85"/><stop offset="0.74" stop-color="#f3f3f3" stop-opacity="0.93"/><stop offset="0.87" stop-color="#f2f2f2" stop-opacity="0.98"/><stop offset="1" stop-color="#f2f2f2"/></linearGradient><linearGradient id="linear-gradient-2" x1="945.05" y1="137.33" x2="945.05" y2="49.69" gradientUnits="userSpaceOnUse"><stop offset="0" stop-color="#fff" stop-opacity="0"/><stop offset="0.07" stop-color="#f9f9f9" stop-opacity="0.11"/><stop offset="0.25" stop-color="#ececec" stop-opacity="0.38"/><stop offset="0.42" stop-color="#e0e0e0" stop-opacity="0.6"/><stop offset="0.59" stop-color="#d7d7d7" stop-opacity="0.78"/><stop offset="0.74" stop-color="#d1d1d1" stop-opacity="0.9"/><stop offset="0.89" stop-color="#cdcdcd" stop-opacity="0.97"/><stop offset="1" stop-color="#ccc"/></linearGradient><clipPath id="clip-path"><path id="_Clipping_Path_" data-name="&lt;Clipping Path&gt;" class="cls-1" d="M936.59,58.84l-4,5.88a12.83,12.83,0,0,0-2.22,7.17l0,9.69,8.46-9Z"/></clipPath><clipPath id="clip-path-2"><path id="_Clipping_Path_2" data-name="&lt;Clipping Path&gt;" class="cls-1" d="M953.88,58.9l4,5.91A12.83,12.83,0,0,1,960,72l0,9.69-8.4-9Z"/></clipPath><clipPath id="clip-path-3"><path id="_Clipping_Path_3" data-name="&lt;Clipping Path&gt;" class="cls-3" d="M944.82,30s-5,8.94-7.67,25.09-.33,25.53-.33,25.53h17S958,51.67,944.82,30Z"/></clipPath><clipPath id="clip-path-4"><polygon id="_Clipping_Path_4" data-name="&lt;Clipping Path&gt;" class="cls-4" points="951.95 36.69 939.07 36.42 944.57 28.54 951.95 36.69"/></clipPath><clipPath id="clip-path-5"><polygon id="_Clipping_Path_5" data-name="&lt;Clipping Path&gt;" class="cls-1" points="940.24 80.57 950.37 80.57 951.15 85.73 939.46 85.69 940.24 80.57"/></clipPath><linearGradient id="linear-gradient-3" x1="922.78" y1="286.33" x2="922.78" y2="154.61" xlink:href="#linear-gradient"/><linearGradient id="linear-gradient-4" x1="922.78" y1="286.33" x2="922.78" y2="154.61" xlink:href="#linear-gradient-2"/><clipPath id="clip-path-6"><path id="_Clipping_Path_6" data-name="&lt;Clipping Path&gt;" class="cls-5" d="M910.07,168.36l-6,8.84A19.29,19.29,0,0,0,900.73,188l0,14.56,12.71-13.47Z"/></clipPath><clipPath id="clip-path-7"><path id="_Clipping_Path_7" data-name="&lt;Clipping Path&gt;" class="cls-5" d="M936,168.44l5.94,8.88a19.29,19.29,0,0,1,3.26,10.8l0,14.56-12.62-13.55Z"/></clipPath><clipPath id="clip-path-8"><path id="_Clipping_Path_8" data-name="&lt;Clipping Path&gt;" class="cls-3" d="M922.44,125S915,138.4,910.91,162.67s-.5,38.38-.5,38.38H936S942.24,157.59,922.44,125Z"/></clipPath><clipPath id="clip-path-9"><polygon id="_Clipping_Path_9" data-name="&lt;Clipping Path&gt;" class="cls-4" points="933.14 135.06 913.79 134.66 922.05 122.82 933.14 135.06"/></clipPath><clipPath id="clip-path-10"><polygon id="_Clipping_Path_10" data-name="&lt;Clipping Path&gt;" class="cls-5" points="915.54 201.02 930.77 201.02 931.94 208.77 914.37 208.72 915.54 201.02"/></clipPath><clipPath id="clip-path-11"><polygon class="cls-2" points="849.52 62.53 839.02 108.79 833.85 63.05 849.52 62.53"/></clipPath></defs><title>project-management-consulting</title><g class="cls-6"><g id="color_palette" data-name="color palette"><polygon class="cls-7" points="945.05 49.69 947.46 85.41 949.86 137.33 945.05 137.33 940.25 137.33 942.65 85.41 945.05 49.69"/><polygon class="cls-8" points="945.05 49.69 945.77 85.41 946.48 137.33 945.05 137.33 943.63 137.33 944.34 85.41 945.05 49.69"/><polygon class="cls-9" points="940.74 84.93 940.97 87.92 949.35 87.92 949.81 85.04 940.74 84.93"/><path id="_Clipping_Path_11" data-name="&lt;Clipping Path&gt;" class="cls-1" d="M936.59,58.84l-4,5.88a12.83,12.83,0,0,0-2.22,7.17l0,9.69,8.46-9Z"/><g class="cls-10"><path class="cls-11" d="M936.53,56.84s-4.13,13.07-2,22.56l4.4-5.26-1.27-16.22Z"/></g><path id="_Clipping_Path_12" data-name="&lt;Clipping Path&gt;" class="cls-1" d="M953.88,58.9l4,5.91A12.83,12.83,0,0,1,960,72l0,9.69-8.4-9Z"/><g class="cls-12"><path class="cls-11" d="M953,54.43s4.64,14.52,3.06,25.09L950.37,72l2.42-14Z"/></g><path id="_Clipping_Path_13" data-name="&lt;Clipping Path&gt;" class="cls-3" d="M944.82,30s-5,8.94-7.67,25.09-.33,25.53-.33,25.53h17S958,51.67,944.82,30Z"/><g class="cls-13"><polygon class="cls-9" points="944.74 28.37 944.58 82.81 961.77 83.28 955.5 30.29 944.74 28.37"/><polygon id="_Clipping_Path_14" data-name="&lt;Clipping Path&gt;" class="cls-4" points="951.95 36.69 939.07 36.42 944.57 28.54 951.95 36.69"/><g class="cls-14"><polygon class="cls-4" points="944.92 26.56 944.71 38.47 950.48 37.31 944.92 26.56"/></g></g><circle class="cls-15" cx="945.11" cy="55.45" r="5.42" transform="translate(886.55 1000.37) rotate(-89.81)"/><circle class="cls-1" cx="945.02" cy="55.45" r="3.54" transform="translate(886.46 1000.28) rotate(-89.81)"/><circle class="cls-4" cx="945.02" cy="55.45" r="3.54" transform="translate(886.46 1000.28) rotate(-89.81)"/><polygon id="_Clipping_Path_15" data-name="&lt;Clipping Path&gt;" class="cls-1" points="940.24 80.57 950.37 80.57 951.15 85.73 939.46 85.69 940.24 80.57"/><g class="cls-16"><polygon class="cls-1" points="944.59 80.08 944.8 87.13 953.5 86.53 952.17 80.63 944.59 80.08"/></g></g><g id="design"><path class="cls-17" d="M740.94,48.31l.14.56a12.1,12.1,0,0,0,8.64,9.2h0a12.33,12.33,0,0,0-8.64,9.2l-.14.56L740.8,67a12.1,12.1,0,0,0-8.64-9.2h0a12.33,12.33,0,0,0,8.64-9.2Z"/><path class="cls-18" d="M833.06,47.21h0a9.85,9.85,0,0,1-12.67-5.69l-2-5.28a9.85,9.85,0,0,1,5.69-12.67h0a9.85,9.85,0,0,1,12.67,5.69l2,5.28A9.85,9.85,0,0,1,833.06,47.21Z"/><path class="cls-19" d="M849.22,39.21c-.94.24-4.77.23-5.71.48l.24-5a9.34,9.34,0,0,0-8.88-9.79l-3.11-.15A9.34,9.34,0,0,0,822,33.65l-.57,11.67a9.34,9.34,0,0,0,8.88,9.79h0a4.58,4.58,0,0,1,4.4,4.75c-.12,3.41-2.88,9.34-3.58,9.71l18.36-.84C849.4,58.89,848.27,49.66,849.22,39.21Z"/><path class="cls-18" d="M848.46,53s11.28-13.95,6.28-27.21S826,12.3,824.28,24.32s15.62,9.14,15.62,9.14,7.08,2.26,8.24,9.6Z"/><ellipse class="cls-19" cx="846.72" cy="40.77" rx="4.87" ry="4.41" transform="translate(764.77 884.5) rotate(-87.21)"/><path class="cls-18" d="M843.89,43.19h0a1.72,1.72,0,0,1-1.63-1.79l.3-6.09a1.72,1.72,0,0,1,1.79-1.63h0A1.72,1.72,0,0,1,846,35.47l-.3,6.09A1.72,1.72,0,0,1,843.89,43.19Z"/><path class="cls-3" d="M898,271.55A13.56,13.56,0,1,1,884.46,258,13.56,13.56,0,0,1,898,271.55Z"/><path class="cls-9" d="M958.75,286.33a12.45,12.45,0,1,0-22.41,0Z"/><path class="cls-20" d="M941.37,273.94a14.35,14.35,0,0,0,.1-1.61A13.53,13.53,0,0,0,922,260.14a17,17,0,0,0-33.06,2,18.15,18.15,0,0,0-10.86,6.31,9,9,0,0,0-2.83-.45,9.16,9.16,0,0,0-.19,18.32h65.57l0,0c.17,0,.34,0,.51,0a6.2,6.2,0,0,0,.2-12.39Z"/><path class="cls-9" d="M888,277.17a13.1,13.1,0,0,0-7,2,20,20,0,0,0-38.82-6.74,20,20,0,0,0-25.53,11.64,10.75,10.75,0,0,0,6.37,2.25h77.32l0-.06h.14A13.18,13.18,0,0,0,888,277.17Z"/><polygon class="cls-21" points="922.78 154.61 926.4 208.29 930.01 286.33 922.78 286.33 915.55 286.33 919.17 208.29 922.78 154.61"/><polygon class="cls-22" points="922.78 154.61 923.85 208.29 924.92 286.33 922.78 286.33 920.64 286.33 921.71 208.29 922.78 154.61"/><polygon class="cls-9" points="916.3 207.57 916.64 212.06 929.25 212.06 929.93 207.74 916.3 207.57"/><path id="_Clipping_Path_16" data-name="&lt;Clipping Path&gt;" class="cls-5" d="M910.07,168.36l-6,8.84A19.29,19.29,0,0,0,900.73,188l0,14.56,12.71-13.47Z"/><g class="cls-23"><path class="cls-11" d="M910,165.35s-6.2,19.64-3,33.91l6.62-7.9L911.72,167Z"/></g><path id="_Clipping_Path_17" data-name="&lt;Clipping Path&gt;" class="cls-5" d="M936,168.44l5.94,8.88a19.29,19.29,0,0,1,3.26,10.8l0,14.56-12.62-13.55Z"/><g class="cls-24"><path class="cls-11" d="M934.73,161.73s7,21.82,4.6,37.71l-8.56-11.25,3.64-21Z"/></g><path id="_Clipping_Path_18" data-name="&lt;Clipping Path&gt;" class="cls-3" d="M922.44,125S915,138.4,910.91,162.67s-.5,38.38-.5,38.38H936S942.24,157.59,922.44,125Z"/><g class="cls-25"><polygon class="cls-9" points="922.32 122.56 922.08 204.39 947.91 205.09 938.49 125.45 922.32 122.56"/><polygon id="_Clipping_Path_19" data-name="&lt;Clipping Path&gt;" class="cls-4" points="933.14 135.06 913.79 134.66 922.05 122.82 933.14 135.06"/><g class="cls-26"><polygon class="cls-4" points="922.58 119.85 922.27 137.75 930.94 136 922.58 119.85"/></g></g><circle class="cls-15" cx="922.87" cy="163.26" r="8.15" transform="translate(756.57 1085.59) rotate(-89.81)"/><circle class="cls-5" cx="922.73" cy="163.26" r="5.32" transform="translate(756.44 1085.45) rotate(-89.81)"/><circle class="cls-4" cx="922.73" cy="163.26" r="5.32" transform="translate(756.43 1085.45) rotate(-89.81)"/><polygon id="_Clipping_Path_20" data-name="&lt;Clipping Path&gt;" class="cls-5" points="915.54 201.02 930.77 201.02 931.94 208.77 914.37 208.72 915.54 201.02"/><g class="cls-27"><polygon class="cls-5" points="922.08 200.28 922.4 210.88 935.48 209.98 933.47 201.11 922.08 200.28"/></g><path class="cls-28" d="M208.35,93.93,204,93.67a24.09,24.09,0,0,0-2.15-3.92L204,86a3.74,3.74,0,0,0-.92-4.76l-4.1-3.3a3.85,3.85,0,0,0-2.43-.88,3.7,3.7,0,0,0-2.46.95l-3.23,2.87a23.81,23.81,0,0,0-4.45-1.29l-1.16-4.11a3.75,3.75,0,0,0-4-2.72l-5.31.57a3.74,3.74,0,0,0-3.34,3.51l-.27,4.36a23.47,23.47,0,0,0-3.91,2.17l-3.74-2.12a3.75,3.75,0,0,0-4.76.92l-3.36,4.16a3.75,3.75,0,0,0,.12,4.85l2.9,3.27a23.47,23.47,0,0,0-1.23,4.3l-4.11,1.16a3.75,3.75,0,0,0-2.72,4l.57,5.31a3.75,3.75,0,0,0,3.51,3.34l4.36.27a23.46,23.46,0,0,0,2.17,3.91L160,120.46a3.74,3.74,0,0,0,.92,4.76l4.16,3.35a3.73,3.73,0,0,0,4.83-.11l3.27-2.9a24,24,0,0,0,4.16,1.21l1.16,4.16a3.75,3.75,0,0,0,4,2.72l5.32-.57a3.74,3.74,0,0,0,3.34-3.51l.26-4.31a24.06,24.06,0,0,0,3.93-2.15l3.76,2.12a3.74,3.74,0,0,0,4.76-.92l3.35-4.16a3.75,3.75,0,0,0-.12-4.85l-2.87-3.23a23.8,23.8,0,0,0,1.26-4.29l4.16-1.16a3.74,3.74,0,0,0,2.72-4l-.57-5.31A3.7,3.7,0,0,0,208.35,93.93Zm-25.22,20.14a10.94,10.94,0,1,1,9.7-12.05A10.94,10.94,0,0,1,183.13,114.06Z"/><path class="cls-28" d="M251.25,72.94l-3.2-.19a17.85,17.85,0,0,0-1.59-2.91L248,67.05a2.77,2.77,0,0,0-.68-3.53l-3-2.45a2.86,2.86,0,0,0-1.8-.66,2.74,2.74,0,0,0-1.83.7l-2.4,2.13a17.64,17.64,0,0,0-3.3-1l-.86-3a2.78,2.78,0,0,0-3-2l-3.93.42a2.78,2.78,0,0,0-2.48,2.6l-.2,3.23a17.41,17.41,0,0,0-2.9,1.61l-2.77-1.57a2.78,2.78,0,0,0-3.53.68l-2.49,3.08a2.78,2.78,0,0,0,.09,3.59l2.15,2.42a17.4,17.4,0,0,0-.91,3.19l-3,.86a2.78,2.78,0,0,0-2,3l.42,3.93a2.78,2.78,0,0,0,2.6,2.48l3.23.2a17.39,17.39,0,0,0,1.61,2.9l-1.56,2.76a2.77,2.77,0,0,0,.68,3.53l3.08,2.48a2.76,2.76,0,0,0,2,.6,2.73,2.73,0,0,0,1.54-.69l2.42-2.15a17.78,17.78,0,0,0,3.08.9l.86,3.08a2.78,2.78,0,0,0,3,2l3.94-.43a2.77,2.77,0,0,0,2.48-2.6l.19-3.2a17.83,17.83,0,0,0,2.91-1.59l2.79,1.57a2.77,2.77,0,0,0,3.53-.68l2.48-3.08a2.78,2.78,0,0,0-.09-3.59l-2.13-2.4a17.67,17.67,0,0,0,.93-3.18l3.08-.86a2.77,2.77,0,0,0,2-3l-.42-3.93A2.74,2.74,0,0,0,251.25,72.94ZM232.55,87.86a8.11,8.11,0,1,1,7.19-8.93A8.11,8.11,0,0,1,232.55,87.86Z"/><path class="cls-28" d="M253,126l-3.2-.19a17.84,17.84,0,0,0-1.59-2.91l1.57-2.79a2.77,2.77,0,0,0-.68-3.53l-3-2.45a2.85,2.85,0,0,0-1.8-.66,2.74,2.74,0,0,0-1.83.7l-2.4,2.13a17.64,17.64,0,0,0-3.3-1l-.86-3a2.78,2.78,0,0,0-3-2l-3.93.42a2.78,2.78,0,0,0-2.48,2.6l-.2,3.23a17.39,17.39,0,0,0-2.9,1.61l-2.77-1.57a2.78,2.78,0,0,0-3.53.68l-2.49,3.09a2.78,2.78,0,0,0,.09,3.59l2.15,2.42a17.4,17.4,0,0,0-.91,3.19l-3,.86a2.78,2.78,0,0,0-2,3l.42,3.93a2.78,2.78,0,0,0,2.6,2.48l3.23.2a17.39,17.39,0,0,0,1.61,2.9l-1.56,2.76a2.77,2.77,0,0,0,.68,3.53l3.08,2.48a2.76,2.76,0,0,0,3.58-.08l2.42-2.15a17.78,17.78,0,0,0,3.08.9l.86,3.08a2.78,2.78,0,0,0,3,2l3.94-.43a2.77,2.77,0,0,0,2.48-2.6l.19-3.2a17.83,17.83,0,0,0,2.91-1.59l2.79,1.57a2.77,2.77,0,0,0,3.53-.68l2.48-3.08a2.78,2.78,0,0,0-.09-3.59l-2.13-2.4a17.65,17.65,0,0,0,.93-3.18l3.08-.86a2.77,2.77,0,0,0,2-3l-.42-3.93A2.74,2.74,0,0,0,253,126Zm-18.69,14.92a8.11,8.11,0,1,1,7.19-8.93A8.11,8.11,0,0,1,234.34,140.93Z"/><path class="cls-28" d="M542.14,187l-4.22.92a24.09,24.09,0,0,0-3.13-3.19l1-4.2a3.74,3.74,0,0,0-2.18-4.33l-4.84-2.06a3.85,3.85,0,0,0-2.58-.19,3.7,3.7,0,0,0-2.11,1.58l-2.33,3.64a23.81,23.81,0,0,0-4.63,0l-2.23-3.64a3.75,3.75,0,0,0-4.6-1.52l-5,2a3.74,3.74,0,0,0-2.26,4.29l.93,4.27a23.47,23.47,0,0,0-3.17,3.15l-4.17-1a3.75,3.75,0,0,0-4.33,2.18l-2.1,4.92a3.75,3.75,0,0,0,1.43,4.63l3.68,2.36a23.47,23.47,0,0,0,0,4.47l-3.64,2.23a3.75,3.75,0,0,0-1.52,4.6l2,5a3.75,3.75,0,0,0,4.29,2.26l4.27-.93a23.46,23.46,0,0,0,3.15,3.17l-1,4.15A3.74,3.74,0,0,0,505,230l4.92,2.09a3.73,3.73,0,0,0,4.62-1.42l2.36-3.68a24,24,0,0,0,4.33,0l2.25,3.68a3.75,3.75,0,0,0,4.6,1.52l5-2a3.74,3.74,0,0,0,2.26-4.29l-.92-4.22a24.06,24.06,0,0,0,3.19-3.13l4.19,1a3.74,3.74,0,0,0,4.33-2.18l2.09-4.92a3.75,3.75,0,0,0-1.43-4.63l-3.65-2.33a23.8,23.8,0,0,0,0-4.47l3.69-2.25a3.74,3.74,0,0,0,1.52-4.6l-2-4.95A3.7,3.7,0,0,0,542.14,187Zm-18.79,26.24A10.94,10.94,0,1,1,529.41,199,10.94,10.94,0,0,1,523.35,213.23Z"/><path class="cls-28" d="M577.71,155.12l-3.13.68a17.85,17.85,0,0,0-2.32-2.37l.75-3.11a2.77,2.77,0,0,0-1.62-3.21l-3.59-1.53a2.86,2.86,0,0,0-1.91-.14,2.74,2.74,0,0,0-1.57,1.17l-1.73,2.7a17.64,17.64,0,0,0-3.43,0l-1.65-2.7a2.78,2.78,0,0,0-3.41-1.13L550.43,147a2.78,2.78,0,0,0-1.68,3.18l.69,3.17a17.41,17.41,0,0,0-2.35,2.34l-3.09-.76a2.78,2.78,0,0,0-3.21,1.62l-1.56,3.65a2.78,2.78,0,0,0,1.06,3.43l2.73,1.75a17.4,17.4,0,0,0,0,3.32l-2.7,1.65a2.78,2.78,0,0,0-1.13,3.41l1.48,3.67a2.78,2.78,0,0,0,3.18,1.68l3.17-.69a17.39,17.39,0,0,0,2.34,2.35l-.75,3.08a2.77,2.77,0,0,0,1.62,3.21l3.64,1.55a2.76,2.76,0,0,0,2.13,0,2.73,2.73,0,0,0,1.3-1.08l1.75-2.73a17.78,17.78,0,0,0,3.21,0l1.67,2.73a2.78,2.78,0,0,0,3.41,1.13l3.68-1.48a2.77,2.77,0,0,0,1.68-3.18l-.68-3.13a17.83,17.83,0,0,0,2.37-2.32l3.11.75a2.77,2.77,0,0,0,3.21-1.62l1.55-3.64a2.78,2.78,0,0,0-1.06-3.43l-2.7-1.73a17.67,17.67,0,0,0,0-3.31l2.73-1.67a2.77,2.77,0,0,0,1.13-3.41l-1.48-3.67A2.74,2.74,0,0,0,577.71,155.12Zm-13.93,19.44A8.11,8.11,0,1,1,568.27,164,8.11,8.11,0,0,1,563.78,174.57Z"/><path class="cls-29" d="M762.67,0c18.89,0,33.92,13.81,33.92,30.71,0,10.61-6,19.78-14.8,25.52,1.77,5.08,4.42,9.72,8.29,12,0,0-14.47,2.87-25-6.52-.66,0-1.77.22-2.43.22-18.56,0-33.92-13.81-33.92-30.71S744.11,0,762.67,0Z"/><path class="cls-30" d="M753.13,31.79a3.89,3.89,0,0,1-3.82,3.82,3.8,3.8,0,0,1-3.82-3.82A3.89,3.89,0,0,1,749.32,28,3.8,3.8,0,0,1,753.13,31.79Z"/><path class="cls-30" d="M766.42,31.79a3.89,3.89,0,0,1-3.82,3.82,3.8,3.8,0,0,1-3.82-3.82A3.89,3.89,0,0,1,762.6,28,3.8,3.8,0,0,1,766.42,31.79Z"/><path class="cls-30" d="M779.84,31.79A3.82,3.82,0,1,1,776,28,3.63,3.63,0,0,1,779.84,31.79Z"/><polygon class="cls-4" points="849.52 62.53 839.02 108.79 833.85 63.05 849.52 62.53"/><path class="cls-31" d="M788.38,97.7S811.67,70.63,814.84,67s6.13-3.24,10.44-3.38,8.58-.55,8.58-.55l15.67-.52s6.79-.1,9.89,0,3,1.48,9.51,5S895.24,83,900.33,86.06s5.37,8.34,2.2,12.81-29.9,36.65-30.11,36.51-6.82-6.06-6.82-6.06l17.91-30.93-17.15-7s-1.34,32.32-1.75,45.32h0a242.09,242.09,0,0,1-46.13,1.3h0c-1.14-17.54-2.16-34.3-2.28-39.87-11.3,9.65-15,12.4-16.67,13.78s-2.76,1.79-5.92,2.34S748.29,118,748.29,118l-2.34-8.35Z"/><polygon class="cls-4" points="849.52 62.53 839.02 108.79 833.85 63.05 849.52 62.53"/><path class="cls-15" d="M833.44,45.71s-4.55.09-6.91-.76a3.49,3.49,0,0,0,3.22,4.25C831.65,49.2,833.19,46.81,833.44,45.71Z"/><polygon class="cls-4" points="749.35 108.73 751.59 117.79 748.29 118.04 745.94 109.69 749.35 108.73"/><path class="cls-31" d="M818.49,138h0a242.09,242.09,0,0,0,46.13-1.3h0c-.09,2.88-.14,4.82-.11,5.24.14,2.34,6.18,41.06,7.56,50.06s13,87.72,13,87.72H874.64L849.53,153.51H836.88l1.38,126.21H827.51l-5.65-92S820.06,162.1,818.49,138Z"/><path class="cls-19" d="M746.1,110.25a21.94,21.94,0,0,1-7.64-1.52c-3.12-1.47-8.36-.69-8.36,3.9s3.08,5.79,7.67,5.79A55.4,55.4,0,0,0,748,117.13Z"/><path class="cls-32" d="M838.26,279.72v6.61H822.37c-2.11,0-2.53-1.75-.6-2.85s5.74-3.77,5.74-3.77Z"/><path class="cls-32" d="M874.64,279.72v6.61h16.08c2.07,0,2.2-1.7.41-2.89s-6-3.72-6-3.72Z"/><g class="cls-33"><polygon class="cls-34" points="842.06 62.49 845.99 86.42 839.4 109.98 835.43 87.92 842.06 62.49"/></g><path class="cls-4" d="M822.78,115.43l26.78-4.16a2.24,2.24,0,0,1,2.38,1.47L863,142.62a1.37,1.37,0,0,1-1.08,1.95l-26.7,4a2.24,2.24,0,0,1-2.38-1.47l-11.07-29.88C821.33,116.4,821.88,115.63,822.78,115.43Z"/><path class="cls-15" d="M862.11,142.83,851,112.94a2.27,2.27,0,0,0-2.38-1.47l.9-.2a2.24,2.24,0,0,1,2.38,1.47L863,142.62a1.37,1.37,0,0,1-1.08,1.95l-1.07.13A1.41,1.41,0,0,0,862.11,142.83Z"/><path class="cls-34" d="M845.28,131.62c-.37-1-1.64-1.75-4.57-2.46-2.17-.57-4.76-1.13-5.76-3.4a3.2,3.2,0,0,1,.6-3.58l-5.59.73,5.35,13.34,4.52-.6C844.27,135.21,846.28,133.89,845.28,131.62Z"/><path class="cls-34" d="M846,130.34c.26.32.35.56.62.88l3.62-.4-.37-1Z"/><path class="cls-34" d="M843.51,128.8l1.52.68,4.35-.68-.37-1Z"/><path class="cls-34" d="M850.49,131.73l-3.62.4a1.4,1.4,0,0,1,0,.83l3.87-.49Z"/><path class="cls-34" d="M846.61,121.89l-.37-1-4.52.6c-1.73.24-3.53.64-4.56,1.59Z"/><path class="cls-34" d="M846.78,134.12a4.7,4.7,0,0,1-.87,1l5.59-.73-.37-1Z"/><path class="cls-34" d="M836.29,124.13a2,2,0,0,0,0,1l11-1.53-.37-1Z"/><path class="cls-34" d="M838.82,127.5a9.53,9.53,0,0,0,2,.5l.34.15,7.49-.89-.37-1Z"/><path class="cls-34" d="M836.52,125.86a2,2,0,0,0,.86.79l10.77-1.44-.52-.64Z"/><path class="cls-4" d="M872.43,135.39c-.21-.14-6.82-6.06-6.82-6.06l1.55-2.68,7.37,6.38C873.25,134.53,872.47,135.41,872.43,135.39Z"/><path class="cls-19" d="M872.43,135.39a18.8,18.8,0,0,1-9.46,6.54c-6.52,2.11-9.19-.63-9.19-3.44a6.29,6.29,0,0,1,5.51-6c3-.18,4.5-.13,6.94-2.59Z"/><path class="cls-28" d="M618.32,281.51H1.25c-2.42,2.13-.95,4.82,1.16,4.82H618.18a2.51,2.51,0,0,0,2.54-2.16A2.41,2.41,0,0,0,618.32,281.51Z"/><path class="cls-35" d="M74.27,151.68v116a13.87,13.87,0,0,0,13.87,13.87H241.72a13.87,13.87,0,0,0,13.87-13.87v-116Z"/><path class="cls-36" d="M255.59,214.75V151.68H74.27v64.95S172.92,247.49,255.59,214.75Z"/><path class="cls-17" d="M255.59,212.45V151.68H74.27v60.76S161.52,239.37,255.59,212.45Z"/><rect class="cls-35" x="74.27" y="151.68" width="181.32" height="18.84"/><rect class="cls-37" x="153.78" y="213.11" width="22.31" height="18.95"/><path class="cls-35" d="M206,151.68h-9.23v-11a5.82,5.82,0,0,0-5.82-5.82H138.9a5.82,5.82,0,0,0-5.81,5.82v11h-9.23v-11a15.06,15.06,0,0,1,15-15H191a15.06,15.06,0,0,1,15,15Z"/><path class="cls-15" d="M503.37,64.93H245.17c-6.7,0-12.12,5.12-12.12,11.44V223c0,6.32,5.43,11.44,12.12,11.44h258.2c6.7,0,12.12-5.12,12.12-11.44V76.37C515.5,70.06,510.07,64.93,503.37,64.93Z"/><path class="cls-20" d="M434.07,271.37h-9.22a18.83,18.83,0,0,1-18-18.81v-30a1.54,1.54,0,0,0-1.58-1.49h-62a1.54,1.54,0,0,0-1.58,1.49v30a18.83,18.83,0,0,1-18,18.81h-9.22a5.47,5.47,0,0,0,0,10.94H434.07a5.47,5.47,0,0,0,0-10.94Z"/><path class="cls-15" d="M503.37,236.14H245.17c-7.7,0-14-5.91-14-13.17V76.38c0-7.26,6.26-13.17,14-13.17h258.2c7.7,0,14,5.91,14,13.17V223C517.33,230.23,511.07,236.14,503.37,236.14Z"/><path class="cls-20" d="M503.37,70a6.61,6.61,0,0,1,6.78,6.4V223a6.61,6.61,0,0,1-6.78,6.4H245.17a6.61,6.61,0,0,1-6.78-6.4V76.38a6.61,6.61,0,0,1,6.78-6.4h258.2m0-6.77H245.17c-7.7,0-14,5.91-14,13.17V223c0,7.26,6.26,13.17,14,13.17h258.2c7.7,0,14-5.91,14-13.17V76.38c0-7.26-6.26-13.17-14-13.17Z"/><path class="cls-9" d="M231.21,204v19c0,7.26,6.26,13.17,14,13.17h258.2c7.7,0,14-5.91,14-13.17V204Z"/><circle class="cls-15" cx="374.44" cy="220.7" r="8.1"/><rect class="cls-38" x="265.24" y="81.34" width="1.4" height="112.74"/><rect class="cls-38" x="292.69" y="81.34" width="1.4" height="112.74"/><rect class="cls-38" x="320.14" y="81.34" width="1.4" height="112.74"/><rect class="cls-38" x="347.59" y="81.34" width="1.4" height="112.74"/><rect class="cls-38" x="375.04" y="81.34" width="1.4" height="112.74"/><rect class="cls-38" x="402.49" y="81.34" width="1.4" height="112.74"/><rect class="cls-38" x="429.94" y="81.34" width="1.4" height="112.74"/><rect class="cls-38" x="457.39" y="81.34" width="1.4" height="112.74"/><rect class="cls-38" x="484.84" y="81.34" width="1.4" height="112.74"/><rect class="cls-17" x="247.31" y="91.14" width="46.08" height="6.86"/><rect class="cls-34" x="247.31" y="78.4" width="16.66" height="6.86"/><rect class="cls-34" x="269.37" y="78.4" width="16.66" height="6.86"/><rect class="cls-34" x="297.31" y="78.4" width="16.66" height="6.86"/><rect class="cls-34" x="325.25" y="78.4" width="16.66" height="6.86"/><rect class="cls-34" x="353.19" y="78.4" width="16.66" height="6.86"/><rect class="cls-34" x="381.13" y="78.4" width="16.66" height="6.86"/><rect class="cls-34" x="409.07" y="78.4" width="16.66" height="6.86"/><rect class="cls-34" x="437.01" y="78.4" width="16.66" height="6.86"/><rect class="cls-34" x="464.95" y="78.4" width="16.66" height="6.86"/><rect class="cls-39" x="247.31" y="106.34" width="46.08" height="6.86"/><rect class="cls-39" x="247.31" y="147.51" width="46.08" height="6.86"/><rect class="cls-17" x="247.31" y="163.2" width="104.9" height="6.86"/><rect class="cls-31" x="320.35" y="106.34" width="46.08" height="6.86"/><rect class="cls-39" x="320.35" y="122.02" width="119.61" height="6.86"/><rect class="cls-17" x="247.31" y="121.53" width="60.78" height="6.86"/><rect class="cls-5" x="341.7" y="236.14" width="65.14" height="12.31"/><rect class="cls-34" x="402.83" y="133.82" width="102.16" height="65.18"/><rect class="cls-15" x="407.41" y="140.68" width="40.4" height="3.81"/><rect class="cls-15" x="407.41" y="149.39" width="91.48" height="3.81"/><rect class="cls-15" x="407.41" y="158.54" width="91.48" height="3.81"/><rect class="cls-15" x="407.41" y="167.69" width="91.48" height="3.81"/><rect class="cls-15" x="407.41" y="176.84" width="91.48" height="3.81"/><rect class="cls-15" x="407.41" y="185.99" width="91.48" height="3.81"/><path class="cls-4" d="M260.6,281.58,185,281.52l.1-115.49,83.4.07-.1,107.67A7.82,7.82,0,0,1,260.6,281.58Z"/><polygon class="cls-15" points="193.41 274.24 263.75 271.37 260.19 281.58 193.41 274.24"/><path class="cls-40" d="M255.7,277.08a4.5,4.5,0,0,1,4.5-4.5l-81.31-.07a4.5,4.5,0,1,0,0,9l81.31.07A4.5,4.5,0,0,1,255.7,277.08Z"/><rect class="cls-40" x="191.27" y="179.93" width="70.67" height="2.61"/><rect class="cls-40" x="191.27" y="187.37" width="70.67" height="2.61"/><rect class="cls-34" x="248.85" y="197.55" width="12.47" height="2.47"/><rect class="cls-34" x="210.45" y="197.55" width="12.47" height="2.47"/><rect class="cls-34" x="229.65" y="197.55" width="12.47" height="2.47"/><rect class="cls-34" x="191.25" y="197.55" width="12.47" height="2.47"/><rect class="cls-38" x="191.25" y="210.02" width="12.47" height="2.47"/><rect class="cls-38" x="191.25" y="215.95" width="12.47" height="2.47"/><rect class="cls-38" x="191.25" y="221.88" width="12.47" height="2.47"/><rect class="cls-38" x="191.25" y="227.8" width="12.47" height="2.47"/><rect class="cls-38" x="191.25" y="233.73" width="12.47" height="2.47"/><rect class="cls-38" x="191.25" y="239.66" width="12.47" height="2.47"/><rect class="cls-38" x="191.25" y="245.59" width="12.47" height="2.47"/><rect class="cls-38" x="191.25" y="251.51" width="12.47" height="2.47"/><rect class="cls-38" x="210.45" y="210.02" width="12.47" height="2.47"/><rect class="cls-38" x="210.45" y="215.95" width="12.47" height="2.47"/><rect class="cls-38" x="210.45" y="221.88" width="12.47" height="2.47"/><rect class="cls-38" x="210.45" y="227.8" width="12.47" height="2.47"/><rect class="cls-38" x="210.45" y="233.73" width="12.47" height="2.47"/><rect class="cls-38" x="210.45" y="239.66" width="12.47" height="2.47"/><rect class="cls-38" x="210.45" y="245.59" width="12.47" height="2.47"/><rect class="cls-38" x="210.45" y="251.51" width="12.47" height="2.47"/><rect class="cls-38" x="229.65" y="210.02" width="12.47" height="2.47"/><rect class="cls-38" x="229.65" y="215.95" width="12.47" height="2.47"/><rect class="cls-38" x="229.65" y="221.88" width="12.47" height="2.47"/><rect class="cls-38" x="229.65" y="227.8" width="12.47" height="2.47"/><rect class="cls-38" x="229.65" y="233.73" width="12.47" height="2.47"/><rect class="cls-38" x="229.65" y="239.66" width="12.47" height="2.47"/><rect class="cls-38" x="229.65" y="245.59" width="12.47" height="2.47"/><rect class="cls-38" x="229.65" y="251.51" width="12.47" height="2.47"/><rect class="cls-38" x="248.85" y="210.02" width="12.47" height="2.47"/><rect class="cls-38" x="248.85" y="215.95" width="12.47" height="2.47"/><rect class="cls-38" x="248.85" y="221.88" width="12.47" height="2.47"/><rect class="cls-38" x="248.85" y="227.8" width="12.47" height="2.47"/><rect class="cls-38" x="248.85" y="233.73" width="12.47" height="2.47"/><rect class="cls-38" x="248.85" y="239.66" width="12.47" height="2.47"/><rect class="cls-38" x="248.85" y="245.59" width="12.47" height="2.47"/><rect class="cls-38" x="248.85" y="251.51" width="12.47" height="2.47"/><rect class="cls-38" x="191.25" y="203.99" width="42.62" height="2.47"/><path class="cls-35" d="M625.13,229.27h-4.9v-9.45q0-1.72.07-3.15a10.48,10.48,0,0,1-1.12,1.15l-2,1.67-2.5-3.08,6.13-5h4.35Z"/><path class="cls-35" d="M629.32,227.24a2.23,2.23,0,0,1,.67-1.73,2.77,2.77,0,0,1,1.94-.61,2.6,2.6,0,0,1,1.86.61,2.27,2.27,0,0,1,.65,1.73,2.22,2.22,0,0,1-.67,1.71,2.6,2.6,0,0,1-1.84.62A2.79,2.79,0,0,1,630,229,2.17,2.17,0,0,1,629.32,227.24Z"/><path class="cls-35" d="M643.61,217.58a5.47,5.47,0,0,1,2.78.71,4.94,4.94,0,0,1,1.93,2,6.36,6.36,0,0,1,.69,3,5.81,5.81,0,0,1-1.8,4.59q-1.8,1.6-5.45,1.6a11.65,11.65,0,0,1-5.1-1v-4a12.74,12.74,0,0,0,2.4.81,10.18,10.18,0,0,0,2.3.32,3.27,3.27,0,0,0,2.06-.57,2,2,0,0,0,.72-1.68,1.92,1.92,0,0,0-.73-1.6,3.57,3.57,0,0,0-2.22-.57,8,8,0,0,0-2.45.43l-1.77-.88.67-9.42h10.18v4h-6.08l-.22,2.36a10.83,10.83,0,0,1,1.36-.2Z"/><path class="cls-35" d="M650.67,224.47v-3.81h6.9v3.81Z"/><path class="cls-35" d="M671.79,229.27h-13V226.1l4.36-4.41q1.87-2,2.44-2.67a5.89,5.89,0,0,0,.8-1.23,2.64,2.64,0,0,0,.23-1.07,1.4,1.4,0,0,0-.45-1.1,1.84,1.84,0,0,0-1.27-.4,3.46,3.46,0,0,0-1.7.48,12.19,12.19,0,0,0-1.95,1.42l-2.65-3.1a14.35,14.35,0,0,1,2.32-1.76,8.32,8.32,0,0,1,2-.81,10.08,10.08,0,0,1,2.48-.28,7.5,7.5,0,0,1,3.09.61,4.84,4.84,0,0,1,2.11,1.74,4.47,4.47,0,0,1,.75,2.53,6.52,6.52,0,0,1-1.07,3.69,12.13,12.13,0,0,1-1.46,1.81q-.91,1-3.88,3.61v.12h6.75Z"/><path class="cls-35" d="M673.79,227.24a2.23,2.23,0,0,1,.67-1.73,2.76,2.76,0,0,1,1.93-.61,2.6,2.6,0,0,1,1.86.61,2.27,2.27,0,0,1,.65,1.73,2.22,2.22,0,0,1-.67,1.71,2.6,2.6,0,0,1-1.84.62,2.79,2.79,0,0,1-1.9-.61A2.17,2.17,0,0,1,673.79,227.24Z"/><path class="cls-35" d="M688.08,217.58a5.47,5.47,0,0,1,2.78.71,5,5,0,0,1,1.93,2,6.37,6.37,0,0,1,.69,3,5.82,5.82,0,0,1-1.8,4.59q-1.8,1.6-5.45,1.6a11.66,11.66,0,0,1-5.1-1v-4a12.76,12.76,0,0,0,2.4.81,10.18,10.18,0,0,0,2.3.32,3.27,3.27,0,0,0,2.06-.57,2,2,0,0,0,.72-1.68,1.92,1.92,0,0,0-.73-1.6,3.57,3.57,0,0,0-2.22-.57,8,8,0,0,0-2.45.43l-1.77-.88.67-9.42h10.18v4H686.2L686,217.8a10.82,10.82,0,0,1,1.35-.2Z"/><path class="cls-35" d="M712.62,229.27H707l-3.48-5.58-3.44,5.58h-5.46l5.92-9.13L695,211.42h5.35l3.22,5.52,3.1-5.52h5.51l-5.65,9.09Z"/><path class="cls-17" d="M617.68,243.37v3.9h-2.89V236.56h3.51q4.37,0,4.37,3.16a3.16,3.16,0,0,1-1.82,2.88l3.12,4.67h-3.28l-2.27-3.9Zm0-2.18h.54q1.52,0,1.52-1.34,0-1.11-1.49-1.11h-.57Z"/><path class="cls-17" d="M631.29,247.27h-6.36V236.56h6.36v2.32h-3.46v1.68H631v2.32h-3.21v2h3.46Z"/><path class="cls-17" d="M642.26,241.69a5.53,5.53,0,0,1-1.48,4.13,5.67,5.67,0,0,1-4.15,1.45h-3.46V236.56h3.71a5.59,5.59,0,0,1,4,1.32A5,5,0,0,1,642.26,241.69Zm-3,.1a3.4,3.4,0,0,0-.58-2.18,2.15,2.15,0,0,0-1.77-.71h-.84v6h.64a2.33,2.33,0,0,0,1.93-.77A3.7,3.7,0,0,0,639.25,241.79Z"/><path class="cls-17" d="M653.28,236.56V243a4.33,4.33,0,0,1-1.19,3.26,4.74,4.74,0,0,1-3.43,1.15,4.69,4.69,0,0,1-3.37-1.12,4.24,4.24,0,0,1-1.18-3.22v-6.51H647v6.28a2.57,2.57,0,0,0,.42,1.65,1.83,1.83,0,0,0,2.54,0,2.73,2.73,0,0,0,.4-1.67v-6.27Z"/><path class="cls-17" d="M660.3,238.78a1.84,1.84,0,0,0-1.61.85,4.08,4.08,0,0,0-.58,2.33q0,3.09,2.35,3.09a4.81,4.81,0,0,0,1.38-.2,13.79,13.79,0,0,0,1.34-.48v2.45a7.42,7.42,0,0,1-3,.59,4.8,4.8,0,0,1-3.72-1.41,5.8,5.8,0,0,1-1.29-4.07,6.49,6.49,0,0,1,.63-2.92,4.49,4.49,0,0,1,1.8-1.94,5.45,5.45,0,0,1,2.76-.68,7.62,7.62,0,0,1,3.32.75l-.89,2.28a10,10,0,0,0-1.19-.47A4.15,4.15,0,0,0,660.3,238.78Z"/><path class="cls-17" d="M671.62,247.27h-6.36V236.56h6.36v2.32h-3.46v1.68h3.21v2.32h-3.21v2h3.46Z"/><path class="cls-17" d="M682.58,241.69a5.53,5.53,0,0,1-1.48,4.13,5.67,5.67,0,0,1-4.15,1.45h-3.46V236.56h3.71a5.59,5.59,0,0,1,4,1.32A5,5,0,0,1,682.58,241.69Zm-3,.1a3.4,3.4,0,0,0-.58-2.18,2.15,2.15,0,0,0-1.77-.71h-.84v6H677a2.33,2.33,0,0,0,1.93-.77A3.7,3.7,0,0,0,679.58,241.79Z"/><path class="cls-17" d="M695.4,244a3.16,3.16,0,0,1-.51,1.77,3.3,3.3,0,0,1-1.46,1.2,5.4,5.4,0,0,1-2.23.43,9.07,9.07,0,0,1-1.79-.15,6.64,6.64,0,0,1-1.51-.52v-2.58a8.64,8.64,0,0,0,1.72.66,6.43,6.43,0,0,0,1.64.24,1.6,1.6,0,0,0,.95-.22.69.69,0,0,0,.3-.58.64.64,0,0,0-.12-.38,1.43,1.43,0,0,0-.39-.33q-.27-.17-1.42-.69a6.82,6.82,0,0,1-1.57-.92,2.82,2.82,0,0,1-.78-1,3.4,3.4,0,0,1-.25-1.37,2.74,2.74,0,0,1,1.08-2.31,4.75,4.75,0,0,1,3-.83,8.31,8.31,0,0,1,3.39.77l-.89,2.23a6.42,6.42,0,0,0-2.59-.69,1.35,1.35,0,0,0-.82.2.6.6,0,0,0-.26.49.71.71,0,0,0,.33.56,12.39,12.39,0,0,0,1.77.91,4.89,4.89,0,0,1,1.92,1.34A2.9,2.9,0,0,1,695.4,244Z"/><path class="cls-17" d="M701.82,238.78a1.84,1.84,0,0,0-1.61.85,4.08,4.08,0,0,0-.58,2.33q0,3.09,2.35,3.09a4.81,4.81,0,0,0,1.38-.2,13.79,13.79,0,0,0,1.34-.48v2.45a7.42,7.42,0,0,1-3,.59A4.8,4.8,0,0,1,698,246a5.8,5.8,0,0,1-1.29-4.07,6.49,6.49,0,0,1,.63-2.92,4.49,4.49,0,0,1,1.8-1.94,5.45,5.45,0,0,1,2.76-.68,7.62,7.62,0,0,1,3.32.75l-.89,2.28a10,10,0,0,0-1.19-.47A4.15,4.15,0,0,0,701.82,238.78Z"/><path class="cls-17" d="M716,247.27h-2.91v-4.37H709.7v4.37h-2.91V236.56h2.91v4h3.36v-4H716Z"/><path class="cls-17" d="M724.64,247.27h-6.36V236.56h6.36v2.32h-3.46v1.68h3.21v2.32h-3.21v2h3.46Z"/><path class="cls-17" d="M735.6,241.69a5.53,5.53,0,0,1-1.48,4.13,5.67,5.67,0,0,1-4.15,1.45h-3.46V236.56h3.71a5.59,5.59,0,0,1,4,1.32A5,5,0,0,1,735.6,241.69Zm-3,.1a3.4,3.4,0,0,0-.58-2.18,2.15,2.15,0,0,0-1.77-.71h-.84v6h.64a2.33,2.33,0,0,0,1.93-.77A3.7,3.7,0,0,0,732.6,241.79Z"/><path class="cls-17" d="M746.63,236.56V243a4.33,4.33,0,0,1-1.19,3.26,4.74,4.74,0,0,1-3.43,1.15,4.69,4.69,0,0,1-3.37-1.12,4.24,4.24,0,0,1-1.18-3.22v-6.51h2.91v6.28a2.57,2.57,0,0,0,.42,1.65,1.83,1.83,0,0,0,2.54,0,2.72,2.72,0,0,0,.4-1.67v-6.27Z"/><path class="cls-17" d="M748.87,247.27V236.56h2.89v8.37h4.12v2.34Z"/><path class="cls-17" d="M764,247.27h-6.36V236.56H764v2.32H760.5v1.68h3.21v2.32H760.5v2H764Z"/><path class="cls-17" d="M621.35,265.27l-.53-2h-3.48l-.54,2h-3.18l3.49-10.75H621l3.54,10.75Zm-1.13-4.38-.46-1.76q-.16-.59-.39-1.52t-.3-1.33q-.07.37-.26,1.23t-.86,3.38Z"/><path class="cls-17" d="M635.87,265.27h-3.79l-3.91-7.54h-.07q.14,1.78.14,2.72v4.83h-2.56V254.56h3.78l3.9,7.44h0q-.1-1.62-.1-2.6v-4.84h2.58Z"/><path class="cls-17" d="M647.27,259.69a5.53,5.53,0,0,1-1.48,4.13,5.67,5.67,0,0,1-4.15,1.45h-3.46V254.56h3.71a5.59,5.59,0,0,1,4,1.32A5,5,0,0,1,647.27,259.69Zm-3,.1a3.4,3.4,0,0,0-.58-2.18,2.15,2.15,0,0,0-1.77-.71h-.84v6h.64a2.33,2.33,0,0,0,1.93-.77A3.7,3.7,0,0,0,644.27,259.79Z"/><path class="cls-17" d="M653.09,254.56h3.74a6.35,6.35,0,0,1,3.24.65,2.2,2.2,0,0,1,1.06,2,2.55,2.55,0,0,1-.46,1.54,2.06,2.06,0,0,1-1.22.82v.07a2.49,2.49,0,0,1,1.44.88,2.65,2.65,0,0,1,.45,1.6,2.73,2.73,0,0,1-1.09,2.3,4.79,4.79,0,0,1-3,.84h-4.17Zm2.89,4.11h.87a1.57,1.57,0,0,0,1-.26.89.89,0,0,0,.34-.76q0-.9-1.36-.9H656Zm0,2.12V263h1q1.35,0,1.36-1.14a1,1,0,0,0-.36-.82,1.67,1.67,0,0,0-1.05-.29Z"/><path class="cls-17" d="M672.3,254.56V261a4.33,4.33,0,0,1-1.19,3.26,4.74,4.74,0,0,1-3.43,1.15,4.69,4.69,0,0,1-3.37-1.12,4.24,4.24,0,0,1-1.18-3.22v-6.51H666v6.28a2.57,2.57,0,0,0,.42,1.65,1.83,1.83,0,0,0,2.54,0,2.72,2.72,0,0,0,.4-1.67v-6.27Z"/><path class="cls-17" d="M683.64,259.69a5.53,5.53,0,0,1-1.48,4.13,5.67,5.67,0,0,1-4.15,1.45h-3.46V254.56h3.71a5.59,5.59,0,0,1,4,1.32A5,5,0,0,1,683.64,259.69Zm-3,.1a3.4,3.4,0,0,0-.58-2.18,2.15,2.15,0,0,0-1.77-.71h-.84v6h.64a2.33,2.33,0,0,0,1.93-.77A3.7,3.7,0,0,0,680.64,259.79Z"/><path class="cls-17" d="M689.86,259h4.62v5.77a12.71,12.71,0,0,1-4.14.64,5,5,0,0,1-3.83-1.44,5.75,5.75,0,0,1-1.35-4.09,5.38,5.38,0,0,1,1.48-4,5.69,5.69,0,0,1,4.15-1.44,9.18,9.18,0,0,1,1.91.19,8.07,8.07,0,0,1,1.56.48l-.92,2.27a5.66,5.66,0,0,0-2.54-.57,2.42,2.42,0,0,0-2,.82,3.56,3.56,0,0,0-.69,2.35,3.61,3.61,0,0,0,.63,2.29,2.17,2.17,0,0,0,1.81.79,5.3,5.3,0,0,0,1.19-.12v-1.68h-1.91Z"/><path class="cls-17" d="M703,265.27h-6.36V254.56H703v2.32h-3.46v1.68h3.21v2.32h-3.21v2H703Z"/><path class="cls-17" d="M709.62,265.27h-2.89v-8.34h-2.62v-2.37h8.12v2.37h-2.61Z"/><path class="cls-17" d="M726.74,259.69a5.53,5.53,0,0,1-1.48,4.13,5.67,5.67,0,0,1-4.15,1.45h-3.46V254.56h3.71a5.59,5.59,0,0,1,4,1.32A5,5,0,0,1,726.74,259.69Zm-3,.1a3.4,3.4,0,0,0-.58-2.18,2.15,2.15,0,0,0-1.77-.71h-.84v6h.64a2.33,2.33,0,0,0,1.93-.77A3.7,3.7,0,0,0,723.74,259.79Z"/><path class="cls-17" d="M735,265.27h-6.36V254.56H735v2.32h-3.46v1.68h3.21v2.32h-3.21v2H735Z"/><path class="cls-17" d="M742.91,254.56h3.24l-3.51,10.71h-3.41l-3.49-10.71H739l1.46,5.43a16.56,16.56,0,0,1,.5,2.52q.05-.51.21-1.28t.27-1.21Z"/><path class="cls-17" d="M747.3,265.27V254.56h2.91v10.71Z"/><path class="cls-17" d="M759.09,265.27l-.53-2h-3.48l-.54,2h-3.18l3.49-10.75h3.86l3.54,10.75ZM758,260.89l-.46-1.76q-.16-.59-.39-1.52t-.3-1.33q-.07.37-.26,1.23t-.86,3.38Z"/><path class="cls-17" d="M768.14,265.27h-2.89v-8.34h-2.62v-2.37h8.12v2.37h-2.61Z"/><path class="cls-17" d="M772.28,265.27V254.56h2.91v10.71Z"/><path class="cls-17" d="M787.52,259.9a5.78,5.78,0,0,1-1.33,4.11,6,6,0,0,1-7.75,0,6.94,6.94,0,0,1,0-8.2,6.06,6.06,0,0,1,7.76,0A5.78,5.78,0,0,1,787.52,259.9Zm-7.37,0q0,3.11,2.16,3.11a1.86,1.86,0,0,0,1.63-.75,5.48,5.48,0,0,0,0-4.72,1.84,1.84,0,0,0-1.61-.77Q780.15,256.77,780.15,259.9Z"/><path class="cls-17" d="M799.65,265.27h-3.79l-3.91-7.54h-.07q.14,1.78.14,2.72v4.83h-2.56V254.56h3.78l3.9,7.44h0q-.1-1.62-.1-2.6v-4.84h2.58Z"/><path class="cls-17" d="M809,262a3.16,3.16,0,0,1-.5,1.77A3.3,3.3,0,0,1,807,265a5.39,5.39,0,0,1-2.23.43,9.08,9.08,0,0,1-1.79-.15,6.64,6.64,0,0,1-1.51-.52v-2.58a8.65,8.65,0,0,0,1.72.66,6.43,6.43,0,0,0,1.64.24,1.6,1.6,0,0,0,.94-.22.69.69,0,0,0,.3-.58.64.64,0,0,0-.12-.38,1.42,1.42,0,0,0-.39-.33q-.27-.17-1.42-.69a6.83,6.83,0,0,1-1.57-.92,2.82,2.82,0,0,1-.78-1,3.4,3.4,0,0,1-.25-1.37,2.74,2.74,0,0,1,1.08-2.31,4.75,4.75,0,0,1,3-.83,8.3,8.3,0,0,1,3.39.77l-.89,2.23a6.42,6.42,0,0,0-2.59-.69,1.35,1.35,0,0,0-.82.2.6.6,0,0,0-.26.49.71.71,0,0,0,.33.56,12.39,12.39,0,0,0,1.77.91,4.89,4.89,0,0,1,1.92,1.34A2.9,2.9,0,0,1,809,262Z"/><path class="cls-35" d="M119.41,11.74q0,5.24-2.26,7.58t-7.23,2.34a19,19,0,0,1-2.49-.12V17.72a11.44,11.44,0,0,0,2.1.2,6.48,6.48,0,0,0,4-1.07,4.28,4.28,0,0,0,1.53-3.38h-.15a4.41,4.41,0,0,1-.94,1.27,3.21,3.21,0,0,1-1.14.6,5.74,5.74,0,0,1-1.67.21A4.48,4.48,0,0,1,107.54,14a6.43,6.43,0,0,1-1.31-4.27,6.27,6.27,0,0,1,1.69-4.65,6.27,6.27,0,0,1,4.63-1.68,6.2,6.2,0,0,1,5.07,2.17A9.46,9.46,0,0,1,119.41,11.74Zm-6.73-4.49a1.62,1.62,0,0,0-1.29.57,2.8,2.8,0,0,0-.49,1.84,2.67,2.67,0,0,0,.43,1.59,1.5,1.5,0,0,0,1.31.59,1.91,1.91,0,0,0,1.38-.57,1.86,1.86,0,0,0,.59-1.38A3.19,3.19,0,0,0,114.06,8,1.62,1.62,0,0,0,112.69,7.25Z"/><path class="cls-35" d="M121.09,13.88a14.54,14.54,0,0,1,1.07-6,7.06,7.06,0,0,1,3.15-3.41,10.89,10.89,0,0,1,5.13-1.1,18.28,18.28,0,0,1,2.54.21V7.3a14.23,14.23,0,0,0-2.65-.23,5.26,5.26,0,0,0-3.6,1.06,4.76,4.76,0,0,0-1.29,3.47h.15a3.71,3.71,0,0,1,3.53-2.08,4.6,4.6,0,0,1,3.69,1.53,6.36,6.36,0,0,1,1.31,4.27A6.37,6.37,0,0,1,132.45,20a7.07,7.07,0,0,1-9.58-.35A8.46,8.46,0,0,1,121.09,13.88Zm6.62,4a1.55,1.55,0,0,0,1.25-.58,2.87,2.87,0,0,0,.48-1.85q0-2.17-1.68-2.17a1.75,1.75,0,0,0-1.35.56,1.94,1.94,0,0,0-.52,1.37,3.4,3.4,0,0,0,.5,1.92A1.52,1.52,0,0,0,127.7,17.85Z"/><path class="cls-35" d="M135.4,16.63V12.82h6.9v3.81Z"/><path class="cls-35" d="M156.66,11.74q0,5.24-2.26,7.58t-7.23,2.34a19,19,0,0,1-2.49-.12V17.72a11.44,11.44,0,0,0,2.1.2,6.48,6.48,0,0,0,4-1.07,4.28,4.28,0,0,0,1.53-3.38h-.15a4.41,4.41,0,0,1-.94,1.27,3.21,3.21,0,0,1-1.14.6,5.74,5.74,0,0,1-1.67.21A4.48,4.48,0,0,1,144.78,14a6.43,6.43,0,0,1-1.31-4.27,6.27,6.27,0,0,1,1.69-4.65,6.27,6.27,0,0,1,4.63-1.68,6.2,6.2,0,0,1,5.07,2.17A9.46,9.46,0,0,1,156.66,11.74Zm-6.73-4.49a1.62,1.62,0,0,0-1.29.57,2.8,2.8,0,0,0-.49,1.84,2.67,2.67,0,0,0,.43,1.59,1.5,1.5,0,0,0,1.31.59,1.91,1.91,0,0,0,1.38-.57,1.86,1.86,0,0,0,.59-1.38A3.19,3.19,0,0,0,151.3,8,1.62,1.62,0,0,0,149.93,7.25Z"/><path class="cls-35" d="M171.3,11.74q0,5.24-2.26,7.58t-7.23,2.34a19,19,0,0,1-2.49-.12V17.72a11.44,11.44,0,0,0,2.1.2,6.48,6.48,0,0,0,4-1.07,4.28,4.28,0,0,0,1.53-3.38h-.15a4.41,4.41,0,0,1-.94,1.27,3.21,3.21,0,0,1-1.14.6,5.74,5.74,0,0,1-1.67.21A4.48,4.48,0,0,1,159.43,14a6.43,6.43,0,0,1-1.31-4.27,6.27,6.27,0,0,1,1.69-4.65,6.27,6.27,0,0,1,4.63-1.68,6.2,6.2,0,0,1,5.07,2.17A9.46,9.46,0,0,1,171.3,11.74Zm-6.73-4.49a1.62,1.62,0,0,0-1.29.57,2.8,2.8,0,0,0-.49,1.84,2.67,2.67,0,0,0,.43,1.59,1.5,1.5,0,0,0,1.31.59,1.91,1.91,0,0,0,1.38-.57,1.86,1.86,0,0,0,.59-1.38A3.19,3.19,0,0,0,166,8,1.62,1.62,0,0,0,164.58,7.25Z"/><path class="cls-35" d="M181.78,8.9a6.38,6.38,0,0,1-1.21,4.16,4.2,4.2,0,0,1-3.44,1.47A4,4,0,0,1,173.8,13a6.35,6.35,0,0,1-1.23-4.11,6.32,6.32,0,0,1,1.2-4.13,4.11,4.11,0,0,1,3.36-1.45,4.2,4.2,0,0,1,3.39,1.5A6.15,6.15,0,0,1,181.78,8.9Zm-5.53,0a6.33,6.33,0,0,0,.23,2q.23.62.7.62t.69-.61a6.47,6.47,0,0,0,.23-2,6.49,6.49,0,0,0-.23-2q-.23-.62-.69-.62t-.7.63A6.52,6.52,0,0,0,176.25,8.95Zm14.43-5.37-9.9,17.85h-3.63l9.9-17.85ZM195.35,16a6.34,6.34,0,0,1-1.21,4.14,4.21,4.21,0,0,1-3.44,1.47,4,4,0,0,1-3.33-1.52,6.33,6.33,0,0,1-1.23-4.1,6.32,6.32,0,0,1,1.2-4.13,4.11,4.11,0,0,1,3.36-1.45,4.2,4.2,0,0,1,3.39,1.5A6.15,6.15,0,0,1,195.35,16Zm-5.53,0a6.33,6.33,0,0,0,.23,2q.23.62.7.62t.73-.71a7.42,7.42,0,0,0,.2-1.93,7.42,7.42,0,0,0-.2-1.93q-.2-.71-.73-.71T190,14A6.52,6.52,0,0,0,189.82,16.05Z"/><path class="cls-17" d="M114.51,32.12a3.59,3.59,0,0,1-1.06,2.77,4.27,4.27,0,0,1-3,1h-.81v3.55h-2.89V28.72h3.71a4.53,4.53,0,0,1,3,.89A3.16,3.16,0,0,1,114.51,32.12Zm-4.88,1.39h.53a1.44,1.44,0,0,0,1-.37,1.33,1.33,0,0,0,.38-1q0-1.08-1.2-1.08h-.75Z"/><path class="cls-17" d="M119.11,35.53v3.9h-2.89V28.72h3.51q4.37,0,4.37,3.16a3.16,3.16,0,0,1-1.82,2.88l3.12,4.67h-3.28l-2.27-3.9Zm0-2.18h.54q1.52,0,1.52-1.34,0-1.11-1.49-1.11h-.57Z"/><path class="cls-17" d="M136.39,34.05a5.78,5.78,0,0,1-1.33,4.11,6,6,0,0,1-7.75,0A5.75,5.75,0,0,1,126,34,5.71,5.71,0,0,1,127.31,30a6.06,6.06,0,0,1,7.76,0A5.78,5.78,0,0,1,136.39,34.05Zm-7.37,0q0,3.11,2.16,3.11a1.86,1.86,0,0,0,1.63-.75,4.13,4.13,0,0,0,.53-2.35,4.17,4.17,0,0,0-.54-2.37,1.84,1.84,0,0,0-1.61-.77Q129,30.92,129,34.05Z"/><path class="cls-17" d="M137.48,42.78a7.08,7.08,0,0,1-1.5-.15V40.38l.5.1a2.84,2.84,0,0,0,.57.05,1.17,1.17,0,0,0,1-.43,2.65,2.65,0,0,0,.31-1.48V28.72h2.91v9.66a5,5,0,0,1-1,3.29A3.55,3.55,0,0,1,137.48,42.78Z"/><path class="cls-17" d="M150,39.42H143.6V28.72H150V31H146.5v1.68h3.21V35H146.5v2H150Z"/><path class="cls-17" d="M156.6,30.93a1.84,1.84,0,0,0-1.61.85,4.08,4.08,0,0,0-.58,2.33q0,3.09,2.35,3.09a4.82,4.82,0,0,0,1.38-.2,13.78,13.78,0,0,0,1.34-.48V39a7.42,7.42,0,0,1-3,.59,4.8,4.8,0,0,1-3.72-1.41,5.8,5.8,0,0,1-1.29-4.06,6.49,6.49,0,0,1,.63-2.92,4.49,4.49,0,0,1,1.8-1.94,5.45,5.45,0,0,1,2.77-.68,7.62,7.62,0,0,1,3.32.75l-.89,2.28a10,10,0,0,0-1.19-.47A4.15,4.15,0,0,0,156.6,30.93Z"/><path class="cls-17" d="M166.29,39.42H163.4V31.08h-2.61V28.72h8.12v2.37h-2.61Z"/><path class="cls-17" d="M181.33,36.17a3.16,3.16,0,0,1-.51,1.77,3.3,3.3,0,0,1-1.46,1.2,5.39,5.39,0,0,1-2.23.43,9,9,0,0,1-1.79-.15,6.64,6.64,0,0,1-1.51-.52V36.32a8.62,8.62,0,0,0,1.72.66,6.41,6.41,0,0,0,1.64.24,1.59,1.59,0,0,0,.94-.22.69.69,0,0,0,.3-.58.64.64,0,0,0-.12-.38,1.43,1.43,0,0,0-.39-.33q-.27-.17-1.42-.69a6.82,6.82,0,0,1-1.57-.92,2.82,2.82,0,0,1-.78-1,3.4,3.4,0,0,1-.25-1.37A2.74,2.74,0,0,1,175,29.39a4.75,4.75,0,0,1,3-.83,8.3,8.3,0,0,1,3.39.77l-.89,2.23a6.42,6.42,0,0,0-2.59-.69,1.35,1.35,0,0,0-.82.2.6.6,0,0,0-.26.49.71.71,0,0,0,.33.56,12.39,12.39,0,0,0,1.77.91,4.89,4.89,0,0,1,1.92,1.34A2.9,2.9,0,0,1,181.33,36.17Z"/><path class="cls-17" d="M187.71,39.42h-2.89V31.08H182.2V28.72h8.12v2.37h-2.61Z"/><path class="cls-17" d="M198.42,39.42l-.53-2h-3.48l-.54,2h-3.18l3.49-10.75H198l3.54,10.75ZM197.29,35l-.46-1.76q-.16-.59-.39-1.52t-.3-1.33q-.07.37-.26,1.23T195,35Z"/><path class="cls-17" d="M211.89,39.42h-3.27l-2.12-4.09-.86.51v3.58h-2.91V28.72h2.91v4.65a12.69,12.69,0,0,1,.89-1.37l2.25-3.28h3.16l-3.38,4.8Z"/><path class="cls-17" d="M219.4,39.42H213V28.72h6.36V31h-3.46v1.68h3.21V35h-3.21v2h3.46Z"/><path class="cls-17" d="M230.45,39.42h-2.91V35.06h-3.36v4.37h-2.91V28.72h2.91v4h3.36v-4h2.91Z"/><path class="cls-17" d="M242.79,34.05a5.78,5.78,0,0,1-1.33,4.11,6,6,0,0,1-7.75,0A5.75,5.75,0,0,1,232.37,34,5.71,5.71,0,0,1,233.71,30a6.06,6.06,0,0,1,7.76,0A5.78,5.78,0,0,1,242.79,34.05Zm-7.37,0q0,3.11,2.16,3.11a1.86,1.86,0,0,0,1.63-.75,4.13,4.13,0,0,0,.53-2.35,4.17,4.17,0,0,0-.54-2.37,1.84,1.84,0,0,0-1.61-.77Q235.42,30.92,235.42,34.05Z"/><path class="cls-17" d="M244.72,39.42V28.72h2.89v8.37h4.12v2.34Z"/><path class="cls-17" d="M262.54,33.84A5.53,5.53,0,0,1,261.06,38a5.67,5.67,0,0,1-4.15,1.45h-3.46V28.72h3.71a5.59,5.59,0,0,1,4,1.32A5,5,0,0,1,262.54,33.84Zm-3,.1a3.4,3.4,0,0,0-.58-2.18,2.15,2.15,0,0,0-1.77-.71h-.84v6H257a2.33,2.33,0,0,0,1.93-.77A3.7,3.7,0,0,0,259.54,33.94Z"/><path class="cls-17" d="M270.82,39.42h-6.36V28.72h6.36V31h-3.46v1.68h3.21V35h-3.21v2h3.46Z"/><path class="cls-17" d="M275.58,35.53v3.9h-2.89V28.72h3.51q4.37,0,4.37,3.16a3.16,3.16,0,0,1-1.82,2.88l3.12,4.67h-3.28l-2.27-3.9Zm0-2.18h.54q1.52,0,1.52-1.34,0-1.11-1.49-1.11h-.57Z"/><path class="cls-17" d="M289.84,36.17a3.16,3.16,0,0,1-.51,1.77,3.3,3.3,0,0,1-1.46,1.2,5.39,5.39,0,0,1-2.23.43,9,9,0,0,1-1.79-.15,6.64,6.64,0,0,1-1.51-.52V36.32a8.62,8.62,0,0,0,1.72.66,6.41,6.41,0,0,0,1.64.24,1.59,1.59,0,0,0,.94-.22.69.69,0,0,0,.3-.58.64.64,0,0,0-.12-.38,1.43,1.43,0,0,0-.39-.33q-.27-.17-1.42-.69a6.82,6.82,0,0,1-1.57-.92,2.82,2.82,0,0,1-.78-1,3.4,3.4,0,0,1-.25-1.37,2.74,2.74,0,0,1,1.08-2.31,4.75,4.75,0,0,1,3-.83,8.3,8.3,0,0,1,3.39.77L289,31.56a6.42,6.42,0,0,0-2.59-.69,1.35,1.35,0,0,0-.82.2.6.6,0,0,0-.26.49.71.71,0,0,0,.33.56,12.39,12.39,0,0,0,1.77.91,4.89,4.89,0,0,1,1.92,1.34A2.9,2.9,0,0,1,289.84,36.17Z"/><path class="cls-17" d="M293.1,29.15a17.3,17.3,0,0,1-1.41,3.55l-.84.1a21.22,21.22,0,0,0,.89-3.52Z"/><path class="cls-17" d="M113.74,54.17a3.16,3.16,0,0,1-.51,1.77,3.3,3.3,0,0,1-1.46,1.2,5.39,5.39,0,0,1-2.23.43,9,9,0,0,1-1.79-.15,6.64,6.64,0,0,1-1.51-.52V54.32A8.62,8.62,0,0,0,108,55a6.41,6.41,0,0,0,1.64.24,1.59,1.59,0,0,0,.94-.22.69.69,0,0,0,.3-.58.64.64,0,0,0-.12-.38,1.43,1.43,0,0,0-.39-.33q-.27-.17-1.42-.69a6.82,6.82,0,0,1-1.57-.92,2.82,2.82,0,0,1-.78-1,3.4,3.4,0,0,1-.25-1.37,2.74,2.74,0,0,1,1.08-2.31,4.75,4.75,0,0,1,3-.83,8.3,8.3,0,0,1,3.39.77l-.89,2.23a6.42,6.42,0,0,0-2.59-.69,1.35,1.35,0,0,0-.82.2.6.6,0,0,0-.26.49.71.71,0,0,0,.33.56,12.39,12.39,0,0,0,1.77.91,4.89,4.89,0,0,1,1.92,1.34A2.9,2.9,0,0,1,113.74,54.17Z"/><path class="cls-17" d="M122,57.42l-.53-2H118l-.54,2h-3.18l3.49-10.75h3.86l3.54,10.75ZM120.84,53l-.46-1.76q-.16-.59-.39-1.52t-.3-1.33q-.07.37-.26,1.23T118.56,53Z"/><path class="cls-17" d="M131,57.42h-2.89V49.08H125.5V46.72h8.12v2.37H131Z"/><path class="cls-17" d="M135.15,57.42V46.72h2.91V57.42Z"/><path class="cls-17" d="M147.37,54.17a3.16,3.16,0,0,1-.51,1.77,3.3,3.3,0,0,1-1.46,1.2,5.39,5.39,0,0,1-2.23.43,9,9,0,0,1-1.79-.15,6.64,6.64,0,0,1-1.51-.52V54.32a8.62,8.62,0,0,0,1.72.66,6.41,6.41,0,0,0,1.64.24,1.59,1.59,0,0,0,.94-.22.69.69,0,0,0,.3-.58.64.64,0,0,0-.12-.38,1.43,1.43,0,0,0-.39-.33q-.27-.17-1.42-.69a6.82,6.82,0,0,1-1.57-.92,2.82,2.82,0,0,1-.78-1,3.4,3.4,0,0,1-.25-1.37A2.74,2.74,0,0,1,141,47.39a4.75,4.75,0,0,1,3-.83,8.3,8.3,0,0,1,3.39.77l-.89,2.23a6.42,6.42,0,0,0-2.59-.69,1.35,1.35,0,0,0-.82.2.6.6,0,0,0-.26.49.71.71,0,0,0,.33.56,12.39,12.39,0,0,0,1.77.91,4.89,4.89,0,0,1,1.92,1.34A2.9,2.9,0,0,1,147.37,54.17Z"/><path class="cls-17" d="M151.88,57.42H149V46.72h6.33V49h-3.48v2h3.21V53.4h-3.21Z"/><path class="cls-17" d="M163.69,57.42l-.53-2h-3.48l-.54,2H156l3.49-10.75h3.86l3.54,10.75ZM162.56,53l-.46-1.76q-.16-.59-.39-1.52t-.3-1.33q-.07.37-.26,1.23T160.28,53Z"/><path class="cls-17" d="M172.77,48.93a1.84,1.84,0,0,0-1.61.85,4.08,4.08,0,0,0-.58,2.33q0,3.09,2.35,3.09a4.82,4.82,0,0,0,1.38-.2,13.78,13.78,0,0,0,1.34-.48V57a7.42,7.42,0,0,1-3,.59,4.8,4.8,0,0,1-3.72-1.41,5.8,5.8,0,0,1-1.29-4.06,6.49,6.49,0,0,1,.63-2.92,4.49,4.49,0,0,1,1.8-1.94,5.45,5.45,0,0,1,2.77-.68,7.62,7.62,0,0,1,3.32.75l-.89,2.28a10,10,0,0,0-1.19-.47A4.15,4.15,0,0,0,172.77,48.93Z"/><path class="cls-17" d="M182.46,57.42h-2.89V49.08H177V46.72h8.12v2.37h-2.61Z"/><path class="cls-17" d="M186.6,57.42V46.72h2.91V57.42Z"/><path class="cls-17" d="M201.84,52.05a5.78,5.78,0,0,1-1.33,4.11,6,6,0,0,1-7.75,0A5.75,5.75,0,0,1,191.43,52,5.71,5.71,0,0,1,192.77,48a6.06,6.06,0,0,1,7.76,0A5.78,5.78,0,0,1,201.84,52.05Zm-7.37,0q0,3.11,2.16,3.11a1.86,1.86,0,0,0,1.63-.75,4.13,4.13,0,0,0,.53-2.35,4.17,4.17,0,0,0-.54-2.37,1.84,1.84,0,0,0-1.61-.77Q194.48,48.92,194.48,52.05Z"/><path class="cls-17" d="M214,57.42h-3.79l-3.91-7.54h-.07q.14,1.78.14,2.72v4.83h-2.56V46.72h3.78l3.9,7.44h0q-.1-1.62-.1-2.6V46.72H214Z"/><path class="cls-35" d="M546.53,14.25H542V11h4.54V6.49h3.28V11h4.54v3.27h-4.54v4.41h-3.28Z"/><path class="cls-35" d="M569,21.42H556V18.25l4.36-4.41q1.87-2,2.44-2.67a5.85,5.85,0,0,0,.8-1.23,2.64,2.64,0,0,0,.23-1.07,1.4,1.4,0,0,0-.45-1.1,1.84,1.84,0,0,0-1.27-.4,3.46,3.46,0,0,0-1.7.48,12.22,12.22,0,0,0-1.95,1.42l-2.65-3.1a14.31,14.31,0,0,1,2.32-1.76,8.31,8.31,0,0,1,2-.81,10.11,10.11,0,0,1,2.48-.28,7.49,7.49,0,0,1,3.09.61,4.84,4.84,0,0,1,2.11,1.74,4.47,4.47,0,0,1,.75,2.53,6.83,6.83,0,0,1-.26,1.94,6.85,6.85,0,0,1-.81,1.75,12.13,12.13,0,0,1-1.46,1.81q-.91,1-3.88,3.61v.12H569Z"/><path class="cls-35" d="M583.67,12.52q0,4.74-1.59,6.94a5.59,5.59,0,0,1-4.86,2.2,5.52,5.52,0,0,1-4.82-2.3q-1.62-2.3-1.62-6.84,0-4.76,1.59-7a5.57,5.57,0,0,1,4.86-2.22A5.51,5.51,0,0,1,582,5.63Q583.67,7.95,583.67,12.52Zm-8.09,0a15.22,15.22,0,0,0,.38,4.16q.38,1.14,1.27,1.14t1.28-1.17a15.5,15.5,0,0,0,.37-4.13,15.59,15.59,0,0,0-.38-4.16q-.38-1.19-1.27-1.19T576,8.33A15.5,15.5,0,0,0,575.58,12.52Z"/><path class="cls-35" d="M585.08,16.63V12.82H592v3.81Z"/><path class="cls-35" d="M600.61,9.73a5.47,5.47,0,0,1,2.78.71,5,5,0,0,1,1.93,2,6.37,6.37,0,0,1,.69,3,5.81,5.81,0,0,1-1.8,4.59q-1.8,1.6-5.45,1.6a11.66,11.66,0,0,1-5.1-1v-4a12.83,12.83,0,0,0,2.4.81,10.18,10.18,0,0,0,2.3.32,3.27,3.27,0,0,0,2.06-.57,2,2,0,0,0,.72-1.68,1.92,1.92,0,0,0-.73-1.6,3.57,3.57,0,0,0-2.22-.57,8,8,0,0,0-2.45.43L594,13l.67-9.42H604.8v4h-6.08l-.22,2.36a10.82,10.82,0,0,1,1.35-.2Z"/><path class="cls-35" d="M620.92,12.52q0,4.74-1.59,6.94a5.59,5.59,0,0,1-4.86,2.2,5.52,5.52,0,0,1-4.82-2.3Q608,17.07,608,12.52q0-4.76,1.59-7a5.57,5.57,0,0,1,4.86-2.22,5.51,5.51,0,0,1,4.82,2.31Q620.92,7.95,620.92,12.52Zm-8.09,0a15.22,15.22,0,0,0,.38,4.16q.38,1.14,1.27,1.14t1.28-1.17a15.5,15.5,0,0,0,.37-4.13,15.59,15.59,0,0,0-.38-4.16q-.38-1.19-1.27-1.19T613.2,8.33A15.5,15.5,0,0,0,612.82,12.52Z"/><path class="cls-35" d="M631.45,8.9a6.38,6.38,0,0,1-1.21,4.16,4.2,4.2,0,0,1-3.44,1.47A4,4,0,0,1,623.48,13a6.35,6.35,0,0,1-1.23-4.11,6.32,6.32,0,0,1,1.2-4.13,4.11,4.11,0,0,1,3.36-1.45,4.2,4.2,0,0,1,3.39,1.5A6.15,6.15,0,0,1,631.45,8.9Zm-5.53,0a6.33,6.33,0,0,0,.23,2q.23.62.7.62t.69-.61a6.47,6.47,0,0,0,.23-2,6.49,6.49,0,0,0-.23-2q-.23-.62-.69-.62t-.7.63A6.52,6.52,0,0,0,625.92,8.95Zm14.43-5.37-9.9,17.85h-3.63l9.9-17.85ZM645,16a6.34,6.34,0,0,1-1.21,4.14,4.21,4.21,0,0,1-3.44,1.47A4,4,0,0,1,637,20.1a6.33,6.33,0,0,1-1.23-4.1,6.32,6.32,0,0,1,1.2-4.13,4.11,4.11,0,0,1,3.36-1.45,4.2,4.2,0,0,1,3.39,1.5A6.15,6.15,0,0,1,645,16Zm-5.53,0a6.31,6.31,0,0,0,.23,2q.23.62.7.62t.73-.71a7.42,7.42,0,0,0,.2-1.93,7.42,7.42,0,0,0-.2-1.93q-.2-.71-.73-.71t-.7.63A6.52,6.52,0,0,0,639.5,16.05Z"/><path class="cls-17" d="M547,39.42H544.1V31.08h-2.61V28.72h8.12v2.37H547Z"/><path class="cls-17" d="M557.48,39.42h-6.36V28.72h6.36V31H554v1.68h3.21V35H554v2h3.46Z"/><path class="cls-17" d="M565.93,39.42l-.53-2h-3.48l-.54,2H558.2l3.49-10.75h3.86l3.54,10.75ZM564.8,35l-.46-1.76q-.16-.59-.39-1.52t-.3-1.33q-.07.37-.26,1.23T562.52,35Z"/><path class="cls-17" d="M574.92,39.42l-2.19-7.71h-.07q.15,2,.15,3.06v4.65h-2.56V28.72h3.85l2.23,7.6h.06l2.19-7.6h3.86V39.42h-2.66V34.73q0-.37,0-.81t.1-2.19h-.07l-2.16,7.7Z"/><path class="cls-17" d="M593.32,39.42l-2.19-7.71h-.07q.15,2,.15,3.06v4.65h-2.56V28.72h3.85l2.23,7.6h.06l2.19-7.6h3.86V39.42h-2.66V34.73q0-.37,0-.81t.1-2.19h-.07l-2.16,7.7Z"/><path class="cls-17" d="M613.17,34.05a5.78,5.78,0,0,1-1.33,4.11,6,6,0,0,1-7.75,0A5.75,5.75,0,0,1,602.76,34,5.71,5.71,0,0,1,604.09,30a6.06,6.06,0,0,1,7.76,0A5.78,5.78,0,0,1,613.17,34.05Zm-7.37,0q0,3.11,2.16,3.11a1.86,1.86,0,0,0,1.63-.75,4.13,4.13,0,0,0,.53-2.35,4.17,4.17,0,0,0-.54-2.37,1.84,1.84,0,0,0-1.61-.77Q605.8,30.92,605.8,34.05Z"/><path class="cls-17" d="M619.83,39.42h-2.89V31.08h-2.61V28.72h8.12v2.37h-2.61Z"/><path class="cls-17" d="M624,39.42V28.72h2.91V39.42Z"/><path class="cls-17" d="M635.2,28.72h3.24l-3.51,10.71h-3.41L628,28.72h3.25l1.46,5.43a16.56,16.56,0,0,1,.5,2.52q.05-.51.21-1.28t.27-1.21Z"/><path class="cls-17" d="M646.17,39.42l-.53-2h-3.48l-.54,2h-3.18l3.49-10.75h3.86l3.54,10.75ZM645,35l-.46-1.76q-.16-.59-.39-1.52t-.3-1.33q-.07.37-.26,1.23T642.76,35Z"/><path class="cls-17" d="M655.21,39.42h-2.89V31.08H649.7V28.72h8.12v2.37h-2.61Z"/><path class="cls-17" d="M659.35,39.42V28.72h2.91V39.42Z"/><path class="cls-17" d="M674.59,34.05a5.78,5.78,0,0,1-1.33,4.11,6,6,0,0,1-7.75,0A5.75,5.75,0,0,1,664.18,34,5.71,5.71,0,0,1,665.51,30a6.06,6.06,0,0,1,7.76,0A5.78,5.78,0,0,1,674.59,34.05Zm-7.37,0q0,3.11,2.16,3.11a1.86,1.86,0,0,0,1.63-.75,4.14,4.14,0,0,0,.53-2.35,4.16,4.16,0,0,0-.54-2.37,1.84,1.84,0,0,0-1.61-.77Q667.22,30.92,667.22,34.05Z"/><path class="cls-17" d="M686.72,39.42h-3.79L679,31.88h-.07q.14,1.78.14,2.72v4.83h-2.56V28.72h3.78l3.9,7.44h0q-.1-1.62-.1-2.6V28.72h2.58Z"/><path class="cls-17" d="M548.84,57.42l-.53-2h-3.48l-.54,2h-3.18l3.49-10.75h3.86L552,57.42ZM547.71,53l-.46-1.76q-.16-.59-.39-1.52t-.3-1.33q-.07.37-.26,1.23T545.43,53Z"/><path class="cls-17" d="M563.35,57.42h-3.79l-3.91-7.54h-.07q.14,1.78.14,2.72v4.83h-2.56V46.72h3.78l3.9,7.44h0q-.1-1.62-.1-2.6V46.72h2.58Z"/><path class="cls-17" d="M574.76,51.84A5.53,5.53,0,0,1,573.28,56a5.67,5.67,0,0,1-4.15,1.45h-3.46V46.72h3.71a5.59,5.59,0,0,1,4,1.32A5,5,0,0,1,574.76,51.84Zm-3,.1a3.4,3.4,0,0,0-.58-2.18,2.15,2.15,0,0,0-1.77-.71h-.84v6h.64a2.33,2.33,0,0,0,1.93-.77A3.7,3.7,0,0,0,571.75,51.94Z"/><path class="cls-17" d="M588.34,50.12a3.59,3.59,0,0,1-1.06,2.77,4.27,4.27,0,0,1-3,1h-.81v3.55h-2.89V46.72h3.71a4.53,4.53,0,0,1,3,.89A3.16,3.16,0,0,1,588.34,50.12Zm-4.88,1.39H584a1.44,1.44,0,0,0,1-.37,1.33,1.33,0,0,0,.38-1q0-1.08-1.2-1.08h-.75Z"/><path class="cls-17" d="M592.94,53.53v3.9H590V46.72h3.51q4.37,0,4.37,3.16a3.16,3.16,0,0,1-1.82,2.88l3.12,4.67h-3.28l-2.27-3.9Zm0-2.18h.54Q595,51.35,595,50q0-1.11-1.49-1.11h-.57Z"/><path class="cls-17" d="M610.22,52.05a5.78,5.78,0,0,1-1.33,4.11,6,6,0,0,1-7.75,0A5.75,5.75,0,0,1,599.8,52,5.71,5.71,0,0,1,601.14,48a6.06,6.06,0,0,1,7.76,0A5.78,5.78,0,0,1,610.22,52.05Zm-7.37,0q0,3.11,2.16,3.11a1.86,1.86,0,0,0,1.63-.75,4.13,4.13,0,0,0,.53-2.35,4.17,4.17,0,0,0-.54-2.37,1.84,1.84,0,0,0-1.61-.77Q602.85,48.92,602.85,52.05Z"/><path class="cls-17" d="M621.24,51.84A5.53,5.53,0,0,1,619.77,56a5.67,5.67,0,0,1-4.15,1.45h-3.46V46.72h3.71a5.59,5.59,0,0,1,4,1.32A5,5,0,0,1,621.24,51.84Zm-3,.1a3.4,3.4,0,0,0-.58-2.18,2.15,2.15,0,0,0-1.77-.71H615v6h.64a2.33,2.33,0,0,0,1.93-.77A3.7,3.7,0,0,0,618.24,51.94Z"/><path class="cls-17" d="M632.27,46.72v6.45a4.33,4.33,0,0,1-1.19,3.26,4.74,4.74,0,0,1-3.43,1.15,4.69,4.69,0,0,1-3.37-1.12,4.24,4.24,0,0,1-1.18-3.22V46.72H626V53a2.57,2.57,0,0,0,.42,1.65,1.83,1.83,0,0,0,2.54,0,2.72,2.72,0,0,0,.4-1.67V46.72Z"/><path class="cls-17" d="M639.28,48.93a1.84,1.84,0,0,0-1.61.85,4.08,4.08,0,0,0-.58,2.33q0,3.09,2.35,3.09a4.82,4.82,0,0,0,1.38-.2,13.78,13.78,0,0,0,1.34-.48V57a7.42,7.42,0,0,1-3,.59,4.8,4.8,0,0,1-3.72-1.41,5.8,5.8,0,0,1-1.29-4.06,6.49,6.49,0,0,1,.63-2.92,4.49,4.49,0,0,1,1.8-1.94,5.45,5.45,0,0,1,2.77-.68,7.62,7.62,0,0,1,3.32.75l-.89,2.28a10,10,0,0,0-1.19-.47A4.15,4.15,0,0,0,639.28,48.93Z"/><path class="cls-17" d="M649,57.42h-2.89V49.08h-2.62V46.72h8.12v2.37H649Z"/><path class="cls-17" d="M653.11,57.42V46.72H656V57.42Z"/><path class="cls-17" d="M664.35,46.72h3.24l-3.51,10.71h-3.41l-3.49-10.71h3.25l1.46,5.43a16.56,16.56,0,0,1,.5,2.52q.05-.51.21-1.28t.27-1.21Z"/><path class="cls-17" d="M668.74,57.42V46.72h2.91V57.42Z"/><path class="cls-17" d="M678.69,57.42h-2.89V49.08h-2.62V46.72h8.12v2.37h-2.61Z"/><path class="cls-17" d="M686.65,50.68l1.85-4h3.13l-3.52,6.53v4.18h-2.92V53.33l-3.52-6.61h3.15Z"/><path class="cls-41" d="M482.13,57.72A31.12,31.12,0,1,1,451,26.6,31.11,31.11,0,0,1,482.13,57.72Z"/><path class="cls-42" d="M452.47,67.51c-.17,0-.25.68-.43.68-1.54,0-4.18,1.44-6.11.68-.53-.21-1,.17-1.46.25s-.93-.85-1.25-.8-.54,1.12-.54,1.12c-3.88,0-4.57-1.9-4.57-3.65,0-1.29.55-2.09.55-3.12a24.12,24.12,0,0,0-.43-2.76c-.35-2.93.16-6.21.16-9.08a12.77,12.77,0,1,1,25.53,0c0,1.35.15,2.8.28,4.26.24,2.77.48,5.54.48,8.31,0,4.94,0,5.88-2.72,5.88-.3,0-.55-.79-.87-.83-.14,0-.34.72-.48.7a4,4,0,0,1-1.69-.39c-.42-.28-1.41-1.66-1.6-1.14-.11.29-2.92.33-3.92.33C452.82,68,453.07,67.36,452.47,67.51Z"/><path class="cls-19" d="M463.81,50.91V50a.44.44,0,0,0-.44-.44H463c-.76-6.52-5.4-11.92-11.85-11.92s-11,5.4-11.76,11.92h-.1a.44.44,0,0,0-.44.44v1a.41.41,0,0,0,.21.34.42.42,0,0,0-.21.34V52a1,1,0,0,0,.49.82c.6,6.77,5.23,13,11.81,13S462.39,59.68,463,53a.94.94,0,0,0,.77-.92V51.6a.41.41,0,0,0-.21-.34A.4.4,0,0,0,463.81,50.91Z"/><path class="cls-42" d="M438.61,48.43h6.64l0-1.78,2,1.78h3.39l.77-1h.22l0,1,6.76-1.07,1.54,1.07.57-1,.23,1h3a12.68,12.68,0,0,0-25.09,0Z"/><path class="cls-19" d="M455,72.18h-8.19c2.5-3.71,3.5-6.38,0-10.68H455C451.61,66,455,72.18,455,72.18Z"/><path class="cls-19" d="M451.14,76.07c2.87,0,5.2-1.85,5.2-4.12,0-.06,0-.11,0-.17H446c0,.06,0,.11,0,.17C445.94,74.22,448.26,76.07,451.14,76.07Z"/><path class="cls-39" d="M460.32,71.77h-4c0,.06,0,.11,0,.17,0,2.28-2.33,4.12-5.2,4.12s-5.2-1.85-5.2-4.12c0-.06,0-.11,0-.17h-3.49a8.69,8.69,0,0,0-8.69,8.68v3.16A31.05,31.05,0,0,0,469,83.07V80.46A8.69,8.69,0,0,0,460.32,71.77Z"/><path class="cls-35" d="M474.47,48.14a5.1,5.1,0,0,1-4.7-5V21.39a5.09,5.09,0,0,1,5-5h33.78a5,5,0,0,1,4.88,5V43.13a5.09,5.09,0,0,1-5,5H490.14l-15.67,8.17Z"/><path class="cls-15" d="M508.58,17.87A3.45,3.45,0,0,1,512,21.39V43.13a3.57,3.57,0,0,1-3.53,3.53H489.78L476,53.85v-7.2H474.8a3.57,3.57,0,0,1-3.52-3.52V21.39a3.57,3.57,0,0,1,3.52-3.52h33.78m0-3H474.8a6.61,6.61,0,0,0-6.52,6.52V43.13a6.63,6.63,0,0,0,4.7,6.25V58.8l4.39-2.29,13.15-6.86h17.92A6.61,6.61,0,0,0,515,43.13V21.39a6.46,6.46,0,0,0-6.38-6.52Z"/><polygon class="cls-15" points="498.81 23.11 489.21 32.71 484.41 27.91 481.02 31.3 485.82 36.1 489.21 39.5 492.6 36.1 502.21 26.5 498.81 23.11"/><circle class="cls-4" cx="545.09" cy="100.64" r="30.69"/><path class="cls-43" d="M549.56,110.65c3.62-2.34,7.76-7.34,7.76-13.15,0-8.05-5.13-14.58-11.45-14.58s-11.44,6.53-11.44,14.58c0,5.71,3.89,10.65,7.48,13a24.17,24.17,0,0,1-.21,5h-2.93l2.41,10a17.72,17.72,0,0,0,4.36.54,17.48,17.48,0,0,0,5.06-.73l2.37-9.79h-3.06A24.51,24.51,0,0,1,549.56,110.65Z"/><path class="cls-37" d="M556.2,89.78a24.11,24.11,0,0,1,1.2,6.39l-.09.83c-.18,0-3.93-1.5-5.36-1.88-2.07-1.23-3.78-3.15-5.06-3.15a3.61,3.61,0,0,0-2.37,1.16,18.63,18.63,0,0,1-8.94,4.55h-.36c-1.28,0-.94-1.65-1.25-2.85a14,14,0,0,1-.15-2c0-6.78,3.46-12,11.49-12a11.18,11.18,0,0,1,9.13,4.92l.28.46A11.81,11.81,0,0,1,556.2,89.78Z"/><path class="cls-34" d="M526.4,124.94a30.58,30.58,0,0,0,38.53-.9c-3.05-5.76-10.42-9.82-19-9.82C536.8,114.22,529.13,118.72,526.4,124.94Z"/><path class="cls-17" d="M511.51,88.3H493.23a5.09,5.09,0,0,1-5-5V61.54a5,5,0,0,1,4.88-5h33.78a5.09,5.09,0,0,1,5,5V83.28a5.1,5.1,0,0,1-4.7,5v8.18Z"/><path class="cls-15" d="M526.86,58a3.57,3.57,0,0,1,3.53,3.52V83.28a3.57,3.57,0,0,1-3.53,3.53h-1.17V94l-13.81-7.2H493.23a3.57,3.57,0,0,1-3.52-3.53V61.54A3.45,3.45,0,0,1,493.08,58h33.78m0-3H493.08a6.46,6.46,0,0,0-6.38,6.52V83.28a6.61,6.61,0,0,0,6.52,6.53h17.92l13.15,6.86,4.39,2.29V89.53a6.63,6.63,0,0,0,4.7-6.25V61.54A6.61,6.61,0,0,0,526.86,55Z"/><path class="cls-15" d="M504.64,66.91l.1.38a8.26,8.26,0,0,0,5.9,6.28h0a8.41,8.41,0,0,0-5.9,6.28l-.1.38-.1-.57a8.26,8.26,0,0,0-5.9-6.28h0a8.41,8.41,0,0,0,5.9-6.28Z"/><path class="cls-15" d="M516.71,61.65l.08.3a6.53,6.53,0,0,0,4.66,5h0a6.65,6.65,0,0,0-4.66,5l-.08.3-.08-.45a6.53,6.53,0,0,0-4.66-5h0a6.65,6.65,0,0,0,4.66-5Z"/><path class="cls-15" d="M513.84,75.34l.06.24a5.15,5.15,0,0,0,3.68,3.92h0a5.25,5.25,0,0,0-3.68,3.92l-.06.24-.06-.36a5.15,5.15,0,0,0-3.68-3.92h0a5.25,5.25,0,0,0,3.68-3.92Z"/><rect class="cls-44" x="63.2" y="214.41" width="3.77"/><path class="cls-43" d="M67.28,58.07l-.26-6L66,52.23a9.23,9.23,0,0,1-10.6-7.6L53.6,34h0L53.45,33a3.46,3.46,0,1,0-2.85,4h0l1.33,8.08-.57.09-.52.06.56,12.82H67.28Z"/><path class="cls-31" d="M41.94,58.07h0Z"/><path class="cls-37" d="M105.34,106.07a7.91,7.91,0,0,0-.76-3.37l-.25-.55h0L87.62,65.41h0l-.09-.16c-.11-.22-.22-.44-.35-.67s-.17-.31-.27-.46-.23-.37-.36-.56l-.18-.27-.2-.25c-.07-.08-.12-.17-.19-.26s-.14-.15-.21-.23-.3-.34-.46-.51l-.42-.43c-.16-.16-.33-.3-.5-.45l-.46-.39q-.25-.2-.51-.38t-.51-.34l-.52-.32-.56-.3-.53-.25-.6-.25-.54-.2-.62-.19L79,58.41c-.2-.05-.41-.1-.62-.13l-.58-.1-.62-.06-.6,0H70.92V71.43L67.55,84.91l-4.71,18.88L58.12,84.91l-3.49-14-1.57-6.29-1.64-6.58H41.94l-.54,0-.6,0-.62.08c-.2,0-.4,0-.6.08l-.56.13c-.22.05-.43.1-.65.16l-.49.17c-.23.08-.46.15-.7.25l-.43.19c-.24.11-.49.22-.72.34l-.41.24c-.23.13-.46.27-.69.41l-.08,0c-.15.1-.29.22-.44.33s-.3.21-.45.33l-.06.06c-.15.11-.27.24-.41.37s-.37.32-.53.49h0L3.57,91.22h0a8.65,8.65,0,0,0-1.38,10.4,9,9,0,0,0,1,1.37h0l28.5,32.94,6.76-5.84-.85-1.49L21.21,100l12.87-8.67,1.19-.81,3.81,40.73,1.12,2,.13.22.34.59,6.2-.88a5.08,5.08,0,1,1,1.43,10.05,4.93,4.93,0,0,1-1.43,0h0l-7.51-1.08-3.21,50L32,273.24a.32.32,0,0,1,0,.08c0,.18,0,.36,0,.54h10.7v.34L50.79,187l4.09-34.21a23,23,0,0,0,11.47.49v-.13l.64,39.7v80.84a1.79,1.79,0,0,0,0,.18h10.7L81,192.43h0L84,132.81c.07-.72.1-1.4.11-2v-.13q0-.49,0-1l.16-32.27h.64l3.8,12.2v35l9.89.26,6.62-37.24A8,8,0,0,0,105.34,106.07ZM84.89,92.94"/><path class="cls-45" d="M31.93,273.85h0l-6.15,3.35a1.59,1.59,0,0,0,.76,3h16.1v-6.35Z"/><path class="cls-37" d="M51.93,45.09,50.6,37h0a3.46,3.46,0,1,1,2.85-4l.15.94h0l1.76,10.66A9.23,9.23,0,0,0,66,52.23L67,52.05l8-1.32a4.62,4.62,0,0,0,3.76-5.53l-1-4.56-.23-1.07-1.17-5.47h0L61.43,36.57A3.84,3.84,0,0,1,57,33.45L54.78,19.83a9.67,9.67,0,0,0,7.56,1.95L72.84,20a12.69,12.69,0,0,1,1.23,3.34l.63,2.91a7.78,7.78,0,0,0,5.08-8.6h0a7.76,7.76,0,0,0-4.08-5.63A6.92,6.92,0,0,0,69.78,6.8a4.59,4.59,0,0,0-1.57,0l-.35.06h0l-5.52.91h0l-.57.09a4.59,4.59,0,0,0-2.93,1.77,4.61,4.61,0,0,0-7.71,3.14,11.52,11.52,0,0,0-8.79,13.1L43.7,34.2h0l1,6.23a5.77,5.77,0,0,0,6.11,4.81l.52-.06Zm22.33-7.66a3.49,3.49,0,0,1-6.88,1.15Z"/><polygon class="cls-43" points="77.78 40.64 77.56 39.58 77.78 40.65 77.78 40.64"/><path class="cls-43" d="M74.08,23.39A12.69,12.69,0,0,0,72.84,20L62.33,21.78a9.67,9.67,0,0,1-7.56-1.95L57,33.45a3.84,3.84,0,0,0,4.41,3.13l14.95-2.46L74.7,26.3Z"/><path class="cls-45" d="M67,273.85v6.35h16.1a1.59,1.59,0,0,0,.76-3l-6.15-3.35H67Z"/><path class="cls-15" d="M71.39,41.45a3.49,3.49,0,0,0,2.87-4l-6.88,1.15A3.49,3.49,0,0,0,71.39,41.45Z"/><polygon class="cls-46" points="40.2 133.25 38.41 130.11 39.08 131.27 40.2 133.25"/><polygon class="cls-15" points="40.33 133.47 40.2 133.24 38.41 130.1 31.65 135.94 31.65 135.94 34.14 138.82 40.33 133.47"/><polygon class="cls-15" points="35.82 140.77 35.82 140.77 37.1 139.86 35.82 140.77"/><polygon class="cls-15" points="53.06 64.64 54.63 70.93 58.13 84.91 62.2 61.1 63.47 61.1 67.55 84.91 70.92 71.43 70.92 58.07 67.28 58.07 51.42 58.07 53.06 64.64"/><polygon class="cls-35" points="63.47 61.1 62.2 61.1 58.13 84.91 62.84 103.8 67.55 84.91 63.47 61.1"/><path class="cls-43" d="M39.36,142.15l7.51,1.07h0a5.08,5.08,0,1,0,0-10l-6.2.89-.34-.59h0l-6.19,5.35h0l1.59,1.83A3.81,3.81,0,0,0,38.08,142h0Zm-3.54-1.38h0l1.28-.91Z"/><path class="cls-43" d="M93.8,151.47l7.51,1.07h0a5.08,5.08,0,1,0,0-10l-6.2.89-.34-.59h0l-6.19,5.35h0L90.16,150a3.81,3.81,0,0,0,2.36,1.31h0Zm-3.54-1.38h0l1.28-.91Z"/><polygon class="cls-15" points="88.57 148.14 88.68 142.44 99.46 138.85 99.46 143.44 88.57 148.14"/><path class="cls-20" d="M613.63,160.77l.14.56a12.1,12.1,0,0,0,8.64,9.2h0a12.33,12.33,0,0,0-8.64,9.2l-.14.56-.14-.84a12.1,12.1,0,0,0-8.64-9.2h0a12.33,12.33,0,0,0,8.64-9.2Z"/><path class="cls-17" d="M805.21,0l.14.56A12.1,12.1,0,0,0,814,9.76h0a12.33,12.33,0,0,0-8.64,9.2l-.14.56-.14-.84a12.1,12.1,0,0,0-8.64-9.2h0a12.33,12.33,0,0,0,8.64-9.2Z"/><path class="cls-28" d="M678.66,80.82l.14.56a12.1,12.1,0,0,0,8.64,9.2h0a12.33,12.33,0,0,0-8.64,9.2l-.14.56-.14-.84a12.1,12.1,0,0,0-8.64-9.2h0a12.33,12.33,0,0,0,8.64-9.2Z"/><path class="cls-28" d="M336.75,16.85l.14.56a12.1,12.1,0,0,0,8.64,9.2h0a12.33,12.33,0,0,0-8.64,9.2l-.14.56-.14-.84a12.1,12.1,0,0,0-8.64-9.2h0a12.33,12.33,0,0,0,8.64-9.2Z"/><path class="cls-20" d="M357.79,7.11l.09.37a8,8,0,0,0,5.74,6.11h0a8.19,8.19,0,0,0-5.74,6.11l-.09.37-.09-.56A8,8,0,0,0,352,13.41h0a8.19,8.19,0,0,0,5.74-6.11Z"/><path class="cls-20" d="M693.62,141l.09.37a8,8,0,0,0,5.74,6.11h0a8.19,8.19,0,0,0-5.74,6.11l-.09.37-.09-.56a8,8,0,0,0-5.74-6.11h0a8.19,8.19,0,0,0,5.74-6.11Z"/><path class="cls-35" d="M716,11.39l.09.37a8,8,0,0,0,5.74,6.11h0A8.19,8.19,0,0,0,716.06,24l-.09.37-.09-.56a8,8,0,0,0-5.74-6.11h0a8.19,8.19,0,0,0,5.74-6.11Z"/><path class="cls-35" d="M794.55,14.94l.09.37a8,8,0,0,0,5.74,6.11h0a8.19,8.19,0,0,0-5.74,6.11l-.09.37-.09-.56a8,8,0,0,0-5.74-6.11h0a8.19,8.19,0,0,0,5.74-6.11Z"/><path class="cls-20" d="M138.06,97.79l.09.37a8,8,0,0,0,5.74,6.11h0a8.19,8.19,0,0,0-5.74,6.11l-.09.37-.09-.56a8,8,0,0,0-5.74-6.11h0A8.19,8.19,0,0,0,138,98Z"/><path class="cls-20" d="M11,167.66l.09.37a8,8,0,0,0,5.74,6.11h0a8.19,8.19,0,0,0-5.74,6.11l-.09.37-.09-.56A8,8,0,0,0,5.2,174h0a8.19,8.19,0,0,0,5.74-6.11Z"/><circle class="cls-35" cx="489.14" cy="264.28" r="17.94" transform="translate(-45.81 415.72) rotate(-44.19)"/><circle class="cls-17" cx="489.15" cy="264.28" r="13.89" transform="translate(-45.81 415.69) rotate(-44.18)"/><path class="cls-30" d="M495.63,268.35a4.23,4.23,0,0,0-.32-5.36c-2.4-2.47-5.15-1.05-7-.11s-2.46,1.1-3,.52.26-1.81.88-2.4a4.22,4.22,0,0,1,2.86-1.18.51.51,0,0,0,.37-.13.53.53,0,0,0,.17-.36l.09-2.07a.52.52,0,0,0-.5-.54,7.07,7.07,0,0,0-3.86,1.06l-.83-.85a.52.52,0,0,0-.73,0l-1.49,1.45a.52.52,0,0,0,0,.73l.79.81c-1.41,2-1.41,4.19,0,5.67,2.26,2.36,4.92,1,6.68.08,2.06-1.07,2.65-1.15,3.3-.49s-.25,1.92-.89,2.54a5,5,0,0,1-2.23,1.25.52.52,0,0,0-.41.61l.41,2a.51.51,0,0,0,.61.41,7.75,7.75,0,0,0,2.95-1.36l.75.77a.52.52,0,0,0,.74,0l1.49-1.45a.52.52,0,0,0,0-.74Z"/><rect class="cls-38" x="498.73" y="211" width="100" height="70.59"/><circle class="cls-47" cx="518.4" cy="220.05" r="4.45"/><rect class="cls-37" x="515.51" y="204.29" width="5.78" height="16.13" rx="2.76" ry="2.76"/><circle class="cls-47" cx="538.62" cy="220.05" r="4.45"/><rect class="cls-37" x="535.73" y="204.29" width="5.78" height="16.13" rx="2.76" ry="2.76"/><circle class="cls-47" cx="558.84" cy="220.05" r="4.45"/><rect class="cls-37" x="555.95" y="204.29" width="5.78" height="16.13" rx="2.76" ry="2.76"/><circle class="cls-47" cx="579.07" cy="220.05" r="4.45"/><rect class="cls-37" x="576.18" y="204.29" width="5.78" height="16.13" rx="2.76" ry="2.76"/><rect class="cls-15" x="505.28" y="230.43" width="8.67" height="8.67"/><rect class="cls-15" x="520.93" y="230.43" width="8.67" height="8.67"/><rect class="cls-15" x="536.57" y="230.43" width="8.67" height="8.67"/><rect class="cls-39" x="552.22" y="230.43" width="8.67" height="8.67"/><rect class="cls-15" x="567.87" y="230.43" width="8.67" height="8.67"/><rect class="cls-15" x="583.52" y="230.43" width="8.67" height="8.67"/><rect class="cls-15" x="505.28" y="245.19" width="8.67" height="8.67"/><rect class="cls-15" x="520.93" y="245.19" width="8.67" height="8.67"/><rect class="cls-39" x="536.57" y="245.19" width="8.67" height="8.67"/><rect class="cls-34" x="552.22" y="245.19" width="8.67" height="8.67"/><rect class="cls-15" x="567.87" y="245.19" width="8.67" height="8.67"/><rect class="cls-15" x="583.52" y="245.19" width="8.67" height="8.67"/><rect class="cls-15" x="505.28" y="259.95" width="8.67" height="8.67"/><rect class="cls-15" x="520.93" y="259.95" width="8.67" height="8.67"/><rect class="cls-15" x="536.57" y="259.95" width="8.67" height="8.67"/><rect class="cls-15" x="552.22" y="259.95" width="8.67" height="8.67"/><rect class="cls-15" x="567.87" y="259.95" width="8.67" height="8.67"/><rect class="cls-15" x="583.52" y="259.95" width="8.67" height="8.67"/></g></g></svg>